<svg width="48" height="48" viewBox="0 0 48 48" fill="none" xmlns="http://www.w3.org/2000/svg">
<path d="M48 24C48 37.2548 37.2548 48 24 48C10.7452 48 0 37.2548 0 24C0 10.7452 10.7452 0 24 0C37.2548 0 48 10.7452 48 24Z" fill="black"/>
<path d="M41 38H34.5C34.0769 38 33.7308 37.8975 33.4615 37.6925C33.2051 37.4875 33 37.2441 32.8462 36.9623L27.2308 27.1613C27.1282 27.4431 27.0128 27.6866 26.8846 27.8916L21.6538 36.9623C21.4744 37.2185 21.2628 37.4555 21.0192 37.6733C20.7756 37.8911 20.4615 38 20.0769 38H14L23.0192 23.5868L14.3462 10H20.8462C21.2692 10 21.5769 10.0577 21.7692 10.173C21.9744 10.2755 22.1538 10.4548 22.3077 10.711L27.8846 20.1469C27.9487 19.9803 28.0192 19.8202 28.0962 19.6664C28.1859 19.5127 28.2821 19.3526 28.3846 19.186L33.2692 10.8071C33.4487 10.5253 33.6346 10.3203 33.8269 10.1922C34.0321 10.0641 34.2821 10 34.5769 10H40.8077L32.0192 23.3178L41 38Z" fill="#00FF00"/>
<path d="M13.769 18.62V38H9.684V18.62H13.769ZM14.453 12.768C14.453 13.1353 14.377 13.4837 14.225 13.813C14.0857 14.1423 13.8893 14.4337 13.636 14.687C13.3827 14.9277 13.085 15.124 12.743 15.276C12.4137 15.4153 12.059 15.485 11.679 15.485C11.3117 15.485 10.9633 15.4153 10.634 15.276C10.3173 15.124 10.0387 14.9277 9.798 14.687C9.55733 14.4337 9.361 14.1423 9.209 13.813C9.06967 13.4837 9 13.1353 9 12.768C9 12.388 9.06967 12.0333 9.209 11.704C9.361 11.3747 9.55733 11.0897 9.798 10.849C10.0387 10.5957 10.3173 10.3993 10.634 10.26C10.9633 10.108 11.3117 10.032 11.679 10.032C12.059 10.032 12.4137 10.108 12.743 10.26C13.085 10.3993 13.3827 10.5957 13.636 10.849C13.8893 11.0897 14.0857 11.3747 14.225 11.704C14.377 12.0333 14.453 12.388 14.453 12.768Z" fill="#E8E8E8"/>
</svg>
