<svg width="17" height="17" viewBox="0 0 17 17" fill="none" xmlns="http://www.w3.org/2000/svg">
<path d="M16.9946 2.80496C16.9927 2.78573 16.9889 2.76678 16.9833 2.74829C16.9776 2.72998 16.97 2.71231 16.9606 2.69559C16.9561 2.68766 16.9552 2.67831 16.9499 2.67066C16.9445 2.66301 16.9377 2.65989 16.9323 2.65338C16.9196 2.63847 16.9055 2.6249 16.8901 2.61286C16.8766 2.60209 16.8622 2.5926 16.847 2.58453C16.8312 2.57638 16.8146 2.56983 16.7974 2.56498C16.7789 2.55949 16.7599 2.5557 16.7407 2.55364C16.7323 2.55364 16.7249 2.54883 16.7161 2.54883H0.283333C0.274763 2.5501 0.266227 2.5518 0.257833 2.55393C0.239381 2.55577 0.221142 2.55949 0.203433 2.56498C0.185867 2.56997 0.16876 2.57663 0.152433 2.58481C0.137523 2.59296 0.123427 2.60245 0.110217 2.61314C0.0946333 2.62519 0.0803958 2.63886 0.0677167 2.65394C0.0623333 2.66046 0.0549667 2.66414 0.05015 2.67123C0.0453333 2.67831 0.0439167 2.68823 0.0393833 2.69616C0.0299979 2.71288 0.0223833 2.73055 0.0167167 2.74886C0.0110854 2.76735 0.00729583 2.7863 0.00538333 2.80553C0.00538333 2.81488 0 2.82309 0 2.83386V14.1666C0 14.3231 0.126862 14.45 0.283333 14.45H16.7167C16.8731 14.45 17 14.3231 17 14.1666V2.83329C17 2.82366 16.9955 2.81544 16.9946 2.80496ZM15.8066 3.11663L8.5 8.15571L1.1934 3.11663H15.8066ZM16.4333 13.8833H0.566667V3.37304L8.33907 8.73315C8.43593 8.80001 8.56407 8.80001 8.66093 8.73315L16.4333 3.37304V13.8833Z" fill="black"/>
</svg>
