<svg width="17" height="17" viewBox="0 0 17 17" fill="none" xmlns="http://www.w3.org/2000/svg">
<g clip-path="url(#clip0)">
<path d="M16.5539 13.115L15.8936 12.675C17.3828 10.0557 17.3662 6.8419 15.8499 4.23813C14.3337 1.63436 11.5468 0.0337466 8.53367 0.0362364C8.37721 0.0362364 8.25039 0.163054 8.25039 0.319517C8.25039 0.47598 8.37721 0.602797 8.53367 0.602797C11.3375 0.600705 13.932 2.08642 15.3492 4.50578C16.7664 6.9251 16.7936 9.91473 15.4205 12.3594L13.112 10.8203C12.6753 10.5315 12.0901 10.6266 11.7672 11.0387L10.766 12.3274C10.6371 12.4971 10.4031 12.5463 10.2167 12.443L10.0261 12.3379C9.39404 11.9934 8.60764 11.5645 7.02319 9.97946C5.43874 8.39445 5.00899 7.60745 4.66449 6.97659L4.55995 6.78593C4.45501 6.59962 4.50334 6.36448 4.67325 6.23464L5.96108 5.23265C6.37313 4.9098 6.46831 4.32465 6.17979 3.88786L3.88513 0.446998C3.5894 0.00224149 2.99614 -0.131282 2.53837 0.143898L1.09953 1.00821C0.647436 1.274 0.315753 1.70445 0.17403 2.20936C-0.344095 4.09721 0.0456851 7.35534 4.84522 12.1554C6.93591 14.2461 8.7334 15.4983 10.2532 16.2065C7.91396 16.7351 5.46131 16.1693 3.58989 14.6695C1.71848 13.1697 0.632066 10.8992 0.63834 8.50101C0.63834 8.34455 0.511523 8.21773 0.35506 8.21773C0.198596 8.21773 0.0717792 8.34455 0.0717792 8.50101C0.0761614 13.1731 3.86166 16.9598 8.53371 16.9658C9.40898 16.9661 10.2789 16.829 11.1116 16.5595C11.863 16.8401 12.6571 16.9891 13.459 16.9998C13.9086 17.0017 14.3564 16.9432 14.7905 16.8258C15.2955 16.6843 15.726 16.3526 15.9916 15.9003L16.8568 14.4623C17.1324 14.0044 16.9989 13.4108 16.5539 13.115ZM16.3698 14.1708L15.5066 15.6096C15.3157 15.9366 15.0057 16.1769 14.6414 16.2801C13.8173 16.5068 12.7011 16.5351 11.2669 16.0181C11.2441 16.0054 11.2197 15.9958 11.1943 15.9898C9.60787 15.4008 7.63815 14.1456 5.24519 11.7535C0.638904 7.14742 0.24202 4.10232 0.720506 2.35925C0.823951 1.99513 1.06424 1.68509 1.39104 1.49407L2.82989 0.630883C3.02851 0.511369 3.286 0.5693 3.41431 0.762314L4.6608 2.63373L5.70701 4.20288C5.8323 4.39234 5.79114 4.64627 5.6124 4.78647L4.32427 5.78846C3.93227 6.0882 3.82032 6.63056 4.06167 7.06101L4.16396 7.24685C4.52602 7.91088 4.97615 8.73695 6.61953 10.3801C8.26291 12.0231 9.08872 12.4733 9.75245 12.8353L9.93856 12.9379C10.369 13.1792 10.9114 13.0673 11.2111 12.6753L12.2131 11.3872C12.3533 11.2085 12.6072 11.1674 12.7967 11.2926L16.2373 13.5872C16.4303 13.715 16.4887 13.9721 16.3698 14.1708Z" fill="black"/>
</g>
<defs>
<clipPath id="clip0">
<rect width="17" height="17" fill="white"/>
</clipPath>
</defs>
</svg>
