<svg width="31" height="31" viewBox="0 0 31 31" fill="none" xmlns="http://www.w3.org/2000/svg">
<g clip-path="url(#clip0)">
<path d="M29.287 0.000976562H1.71094C0.766655 0.000976562 0 0.766113 0 1.71194V29.2885C0 30.2343 0.766655 31.0005 1.71094 31.0005H16.5571V18.9956H12.5176V14.3165H16.5571V10.866C16.5571 6.8627 19.0015 4.68163 22.5734 4.68163C24.2859 4.68163 25.7544 4.80975 26.1826 4.86538V9.0499L23.705 9.05092C21.7629 9.05092 21.3882 9.97429 21.3882 11.3285V14.315H26.0218L25.416 18.9936H21.3877V30.9989H29.2865C30.2318 30.9989 30.999 30.2318 30.999 29.2885V1.71092C30.9985 0.766113 30.2323 0.000976562 29.287 0.000976562Z" fill="black"/>
</g>
<defs>
<clipPath id="clip0">
<rect width="31" height="31" fill="white"/>
</clipPath>
</defs>
</svg>
