<svg width="31" height="31" viewBox="0 0 31 31" fill="none" xmlns="http://www.w3.org/2000/svg">
<g clip-path="url(#clip0)">
<path d="M12.0935 31H2.27051C1.01842 31 0 29.9816 0 28.7295V2.27051C0 1.01842 1.01842 0 2.27051 0H9.30837C9.55931 0 9.76247 0.2034 9.76247 0.454102C9.76247 0.704803 9.55931 0.908203 9.30837 0.908203H2.27051C1.51935 0.908203 0.908203 1.51935 0.908203 2.27051V28.7295C0.908203 29.4807 1.51935 30.0918 2.27051 30.0918H12.0935C12.3445 30.0918 12.5476 30.2952 12.5476 30.5459C12.5476 30.7966 12.3445 31 12.0935 31Z" fill="black"/>
<path d="M30.5459 8.49099C30.295 8.49099 30.0918 8.28783 30.0918 8.03689V2.27051C30.0918 1.51935 29.4806 0.908203 28.7295 0.908203H11.3987C11.1477 0.908203 10.9445 0.704803 10.9445 0.454102C10.9445 0.2034 11.1477 0 11.3987 0H28.7295C29.9816 0 31 1.01842 31 2.27051V8.03689C31 8.28783 30.7968 8.49099 30.5459 8.49099Z" fill="black"/>
<path d="M28.7295 31.0003H14.1838C13.9329 31.0003 13.7297 30.7969 13.7297 30.5462C13.7297 30.2955 13.9329 30.0921 14.1838 30.0921H28.7295C29.4806 30.0921 30.0918 29.481 30.0918 28.7298V10.1275C30.0918 9.87656 30.295 9.6734 30.5459 9.6734C30.7968 9.6734 31 9.87656 31 10.1275V28.7298C31 29.9819 29.9816 31.0003 28.7295 31.0003Z" fill="black"/>
<path d="M9.0993 22.9589C8.91576 22.9589 8.7327 22.9083 8.56951 22.8078C8.26843 22.6221 8.08868 22.3002 8.08868 21.9466V9.053C8.08868 8.69942 8.26843 8.37753 8.56951 8.19187C8.87059 8.00644 9.23907 7.9906 9.55482 8.14977L22.355 14.5966C22.6982 14.7695 22.9113 15.1155 22.9113 15.4998C22.9113 15.8842 22.6982 16.2302 22.3548 16.4031L9.55482 22.8499C9.41031 22.9227 9.25445 22.9589 9.0993 22.9589ZM9.09953 8.94918C9.07777 8.94918 9.05933 8.95674 9.04585 8.96526C9.02338 8.97898 8.99689 9.00546 8.99689 9.053V21.9466C8.99689 21.9942 9.02338 22.0207 9.04585 22.0344C9.06831 22.0483 9.10379 22.0602 9.14636 22.0387L21.9464 15.5918C21.9842 15.5729 22.0031 15.5419 22.0031 15.4998C22.0031 15.4577 21.9842 15.4267 21.9466 15.4078L9.14636 8.961C9.12957 8.95249 9.11372 8.94918 9.09953 8.94918Z" fill="black"/>
</g>
<defs>
<clipPath id="clip0">
<rect width="31" height="31" fill="white"/>
</clipPath>
</defs>
</svg>
