<svg width="31" height="31" viewBox="0 0 31 31" fill="none" xmlns="http://www.w3.org/2000/svg">
<path d="M25.828 4.56656H21.7519C18.5791 4.56656 15.9979 7.14784 15.9979 10.3206V13.7607H12.7723C12.4381 13.7607 12.1668 14.0317 12.1668 14.3662V19.0245C12.1668 19.3589 12.4381 19.63 12.7723 19.63H15.9979V29.7891H1.81641C1.48245 29.7891 1.21094 29.5175 1.21094 29.1836V1.81641C1.21094 1.48245 1.48245 1.21094 1.81641 1.21094H3.02734C3.36177 1.21094 3.63281 0.939896 3.63281 0.605469C3.63281 0.271042 3.36177 0 3.02734 0H1.81641C0.814781 0 0 0.814781 0 1.81641V29.1836C0 30.1852 0.814781 31 1.81641 31H16.6033C16.9378 31 17.2088 30.729 17.2088 30.3945V19.0245C17.2088 18.6901 16.9378 18.419 16.6033 18.419H13.378V14.9714H16.6033C16.9378 14.9714 17.2088 14.7004 17.2088 14.3659V10.3206C17.2088 7.81551 19.2468 5.77726 21.7522 5.77726H25.2227V9.22465H21.7522C21.1581 9.22465 20.6562 9.72652 20.6562 10.3206V14.3659C20.6562 14.7004 20.9272 14.9714 21.2617 14.9714H25.1378L24.6842 18.419H21.2617C20.9275 18.419 20.6562 18.6901 20.6562 19.0245V30.3945C20.6562 30.729 20.9275 31 21.2617 31H23.1289C23.4633 31 23.7344 30.729 23.7344 30.3945C23.7344 30.0601 23.4633 29.7891 23.1289 29.7891H21.8671V19.63H25.2152C25.5191 19.63 25.7759 19.4046 25.8154 19.1035L26.4285 14.4449C26.4512 14.2723 26.3984 14.098 26.2835 13.9669C26.1685 13.8357 26.0025 13.7607 25.8282 13.7607H21.8674V10.4358H25.8282C26.1626 10.4358 26.4337 10.1648 26.4337 9.83035V5.17203C26.4334 4.8376 26.1624 4.56656 25.828 4.56656Z" fill="black"/>
<path d="M29.1836 0H7.87109C7.53667 0 7.26562 0.271042 7.26562 0.605469C7.26562 0.939896 7.53667 1.21094 7.87109 1.21094H29.1836C29.5175 1.21094 29.7891 1.48245 29.7891 1.81641V29.1836C29.7891 29.5175 29.5175 29.7891 29.1836 29.7891H27.9727C27.6382 29.7891 27.3672 30.0601 27.3672 30.3945C27.3672 30.729 27.6382 31 27.9727 31H29.1836C30.1852 31 31 30.1852 31 29.1836V1.81641C31 0.814781 30.1852 0 29.1836 0Z" fill="black"/>
<path d="M25.551 29.7891H25.5505C25.2161 29.7891 24.9453 30.0601 24.9453 30.3945C24.9453 30.729 25.2166 31 25.551 31C25.8854 31 26.1565 30.729 26.1565 30.3945C26.1565 30.0601 25.8854 29.7891 25.551 29.7891Z" fill="black"/>
<path d="M5.44946 1.21094C5.78388 1.21094 6.05492 0.939896 6.05492 0.605469C6.05492 0.271042 5.78388 0 5.44946 0H5.44898C5.11456 0 4.84375 0.271042 4.84375 0.605469C4.84375 0.939896 5.11503 1.21094 5.44946 1.21094Z" fill="black"/>
</svg>
