<svg width="26" height="26" viewBox="0 0 26 26" fill="none" xmlns="http://www.w3.org/2000/svg">
<g clip-path="url(#clip0)">
<path d="M21.4957 3.73628H18.1608C15.5649 3.73628 13.4529 5.84823 13.4529 8.44416V11.2588H10.8138C10.5404 11.2588 10.3185 11.4805 10.3185 11.7541V15.5655C10.3185 15.8391 10.5404 16.0609 10.8138 16.0609H13.4529V24.3729H1.84992C1.57669 24.3729 1.35454 24.1507 1.35454 23.8775V1.48615C1.35454 1.21292 1.57669 0.990767 1.84992 0.990767H2.84069C3.11431 0.990767 3.33607 0.769006 3.33607 0.495384C3.33607 0.221762 3.11431 0 2.84069 0H1.84992C1.03041 0 0.36377 0.666639 0.36377 1.48615V23.8775C0.36377 24.697 1.03041 25.3636 1.84992 25.3636H13.9483C14.2219 25.3636 14.4437 25.1419 14.4437 24.8683V15.5655C14.4437 15.2919 14.2219 15.0701 13.9483 15.0701H11.3094V12.2493H13.9483C14.2219 12.2493 14.4437 12.0276 14.4437 11.7539V8.44416C14.4437 6.39451 16.1112 4.72685 18.161 4.72685H21.0006V7.54744H18.161C17.6749 7.54744 17.2643 7.95807 17.2643 8.44416V11.7539C17.2643 12.0276 17.486 12.2493 17.7597 12.2493H20.9311L20.5599 15.0701H17.7597C17.4862 15.0701 17.2643 15.2919 17.2643 15.5655V24.8683C17.2643 25.1419 17.4862 25.3636 17.7597 25.3636H19.2874C19.561 25.3636 19.7828 25.1419 19.7828 24.8683C19.7828 24.5946 19.561 24.3729 19.2874 24.3729H18.255V16.0609H20.9944C21.243 16.0609 21.4532 15.8765 21.4855 15.6301L21.9871 11.8186C22.0056 11.6773 21.9625 11.5347 21.8684 11.4275C21.7744 11.3201 21.6386 11.2588 21.4959 11.2588H18.2552V8.5384H21.4959C21.7696 8.5384 21.9913 8.31664 21.9913 8.04302V4.23166C21.9911 3.95804 21.7694 3.73628 21.4957 3.73628Z" fill="white"/>
<path d="M24.2412 0H6.80373C6.53011 0 6.30835 0.221762 6.30835 0.495384C6.30835 0.769006 6.53011 0.990767 6.80373 0.990767H24.2412C24.5145 0.990767 24.7366 1.21292 24.7366 1.48615V23.8775C24.7366 24.1507 24.5145 24.3729 24.2412 24.3729H23.2505C22.9768 24.3729 22.7551 24.5946 22.7551 24.8683C22.7551 25.1419 22.9768 25.3636 23.2505 25.3636H24.2412C25.0607 25.3636 25.7274 24.697 25.7274 23.8775V1.48615C25.7274 0.666639 25.0607 0 24.2412 0Z" fill="white"/>
<path d="M21.2693 24.3729H21.2689C20.9952 24.3729 20.7737 24.5946 20.7737 24.8682C20.7737 25.1419 20.9956 25.3636 21.2693 25.3636C21.5429 25.3636 21.7646 25.1419 21.7646 24.8682C21.7646 24.5946 21.5429 24.3729 21.2693 24.3729Z" fill="white"/>
<path d="M4.82248 0.990767C5.0961 0.990767 5.31786 0.769006 5.31786 0.495384C5.31786 0.221762 5.0961 0 4.82248 0H4.82209C4.54847 0 4.3269 0.221762 4.3269 0.495384C4.3269 0.769006 4.54886 0.990767 4.82248 0.990767Z" fill="white"/>
</g>
<defs>
<clipPath id="clip0">
<rect width="25.3636" height="25.3636" fill="white" transform="translate(0.36377)"/>
</clipPath>
</defs>
</svg>
