<svg width="26" height="26" viewBox="0 0 26 26" fill="none" xmlns="http://www.w3.org/2000/svg">
<g clip-path="url(#clip0)">
<path d="M9.8947 25.3636H1.85769C0.833251 25.3636 0 24.5304 0 23.5059V1.85769C0 0.833251 0.833251 0 1.85769 0H7.61594C7.82125 0 7.98748 0.166418 7.98748 0.371538C7.98748 0.576657 7.82125 0.743075 7.61594 0.743075H1.85769C1.2431 0.743075 0.743075 1.2431 0.743075 1.85769V23.5059C0.743075 24.1205 1.2431 24.6206 1.85769 24.6206H9.8947C10.1 24.6206 10.2662 24.787 10.2662 24.9921C10.2662 25.1972 10.1 25.3636 9.8947 25.3636Z" fill="white"/>
<path d="M24.9921 6.94717C24.7867 6.94717 24.6205 6.78095 24.6205 6.57564V1.85769C24.6205 1.2431 24.1205 0.743075 23.5059 0.743075H9.32613C9.12081 0.743075 8.95459 0.576657 8.95459 0.371538C8.95459 0.166418 9.12081 0 9.32613 0H23.5059C24.5303 0 25.3636 0.833251 25.3636 1.85769V6.57564C25.3636 6.78095 25.1974 6.94717 24.9921 6.94717Z" fill="white"/>
<path d="M23.5059 25.3639H11.6049C11.3996 25.3639 11.2334 25.1975 11.2334 24.9924C11.2334 24.7872 11.3996 24.6208 11.6049 24.6208H23.5059C24.1205 24.6208 24.6206 24.1208 24.6206 23.5062V8.28613C24.6206 8.08082 24.7868 7.9146 24.9921 7.9146C25.1974 7.9146 25.3636 8.08082 25.3636 8.28613V23.5062C25.3636 24.5306 24.5304 25.3639 23.5059 25.3639Z" fill="white"/>
<path d="M7.44478 18.7846C7.29462 18.7846 7.14485 18.7432 7.01132 18.6609C6.76499 18.509 6.61792 18.2456 6.61792 17.9563V7.407C6.61792 7.1177 6.76499 6.85434 7.01132 6.70243C7.25766 6.55072 7.55915 6.53776 7.81748 6.66799L18.2904 11.9427C18.5712 12.0841 18.7455 12.3672 18.7455 12.6817C18.7455 12.9961 18.5712 13.2792 18.2902 13.4207L7.81748 18.6954C7.69925 18.755 7.57173 18.7846 7.44478 18.7846ZM7.44498 7.32205C7.42718 7.32205 7.41208 7.32824 7.40105 7.33521C7.38267 7.34643 7.361 7.3681 7.361 7.407V17.9563C7.361 17.9952 7.38267 18.0169 7.40105 18.0281C7.41944 18.0396 7.44846 18.0492 7.48329 18.0316L17.956 12.7569C17.987 12.7415 18.0025 12.7161 18.0025 12.6817C18.0025 12.6472 17.987 12.6219 17.9562 12.6064L7.48329 7.33173C7.46955 7.32476 7.45659 7.32205 7.44498 7.32205Z" fill="white"/>
</g>
<defs>
<clipPath id="clip0">
<rect width="25.3636" height="25.3636" fill="white"/>
</clipPath>
</defs>
</svg>
