<svg width="64" height="64" viewBox="0 0 64 64" fill="none" xmlns="http://www.w3.org/2000/svg">
<path d="M60.125 11.7535H57.3125V7.18701C57.3117 6.42476 57.0085 5.69395 56.4696 5.15496C55.9306 4.61596 55.1998 4.31281 54.4375 4.31201H52.4205C51.6582 4.31281 50.9274 4.61596 50.3884 5.15496C49.8495 5.69395 49.5463 6.42476 49.5455 7.18701V11.7535H43.0265V7.18701C43.0257 6.42476 42.7226 5.69395 42.1836 5.15496C41.6446 4.61596 40.9138 4.31281 40.1515 4.31201H38.1345C37.3723 4.31294 36.6416 4.61614 36.1026 5.1551C35.5636 5.69407 35.2604 6.4248 35.2595 7.18701V11.7535H28.7405V7.18701C28.7396 6.4248 28.4364 5.69407 27.8974 5.1551C27.3584 4.61614 26.6277 4.31294 25.8655 4.31201H23.85C23.0878 4.31294 22.3571 4.61614 21.8181 5.1551C21.2791 5.69407 20.9759 6.4248 20.975 7.18701V11.7535H14.4545V7.18701C14.4536 6.4248 14.1504 5.69407 13.6114 5.1551C13.0724 4.61614 12.3417 4.31294 11.5795 4.31201H9.5625C8.80029 4.31294 8.06956 4.61614 7.53059 5.1551C6.99162 5.69407 6.68843 6.4248 6.6875 7.18701V11.7535H3.875C2.84765 11.7547 1.86272 12.1633 1.13628 12.8898C0.409831 13.6162 0.00119098 14.6012 0 15.6285L0 56.313C0.0010586 57.2078 0.356978 58.0656 0.989684 58.6983C1.62239 59.331 2.48022 59.687 3.375 59.688H60.625C61.5198 59.687 62.3776 59.331 63.0103 58.6983C63.643 58.0656 63.9989 57.2078 64 56.313V15.6285C63.9988 14.6012 63.5902 13.6162 62.8637 12.8898C62.1373 12.1633 61.1523 11.7547 60.125 11.7535V11.7535ZM51.2955 7.18701C51.2959 6.88877 51.4146 6.60285 51.6254 6.39196C51.8363 6.18106 52.1223 6.06241 52.4205 6.06201H54.4375C54.7357 6.06241 55.0217 6.18106 55.2326 6.39196C55.4434 6.60285 55.5621 6.88877 55.5625 7.18701V11.7535H51.2955V7.18701ZM37.0095 7.18701C37.0099 6.88877 37.1286 6.60285 37.3394 6.39196C37.5503 6.18106 37.8363 6.06241 38.1345 6.06201H40.15C40.4482 6.06241 40.7342 6.18106 40.9451 6.39196C41.1559 6.60285 41.2746 6.88877 41.275 7.18701V11.7535H37.0095V7.18701ZM22.7235 7.18701C22.7239 6.88877 22.8426 6.60285 23.0534 6.39196C23.2643 6.18106 23.5503 6.06241 23.8485 6.06201H25.8655C26.1637 6.06241 26.4497 6.18106 26.6606 6.39196C26.8714 6.60285 26.9901 6.88877 26.9905 7.18701V11.7535H22.7235V7.18701ZM8.4375 7.18701C8.4379 6.88877 8.55655 6.60285 8.76744 6.39196C8.97834 6.18106 9.26425 6.06241 9.5625 6.06201H11.5795C11.8777 6.06241 12.1637 6.18106 12.3746 6.39196C12.5854 6.60285 12.7041 6.88877 12.7045 7.18701V11.7535H8.4375V7.18701ZM1.75 15.6285C1.75066 15.0651 1.97476 14.525 2.37313 14.1266C2.7715 13.7283 3.31162 13.5042 3.875 13.5035H60.125C60.6884 13.504 61.2286 13.7281 61.627 14.1265C62.0254 14.5249 62.2495 15.0651 62.25 15.6285V21.3175H1.75V15.6285ZM62.25 56.313C62.2495 56.7438 62.0781 57.1569 61.7735 57.4615C61.4688 57.7661 61.0558 57.9375 60.625 57.938H3.375C2.94419 57.9375 2.53117 57.7661 2.22654 57.4615C1.9219 57.1569 1.75053 56.7438 1.75 56.313V23.0675H62.25V56.313Z" fill="#A3A3A3"/>
<path d="M6.875 34.0316H12.243C12.7401 34.031 13.2166 33.8332 13.5681 33.4817C13.9196 33.1302 14.1173 32.6537 14.118 32.1566V28.1926C14.1175 27.6955 13.9198 27.2189 13.5682 26.8674C13.2167 26.5159 12.7401 26.3182 12.243 26.3176H6.875C6.37788 26.3182 5.90128 26.5159 5.54976 26.8674C5.19824 27.2189 5.00053 27.6955 5 28.1926V32.1566C5.00066 32.6537 5.19842 33.1302 5.54991 33.4817C5.90139 33.8332 6.37792 34.031 6.875 34.0316V34.0316ZM6.75 28.1926C6.75 28.1595 6.76317 28.1277 6.78661 28.1042C6.81005 28.0808 6.84185 28.0676 6.875 28.0676H12.243C12.2762 28.0676 12.3079 28.0808 12.3314 28.1042C12.3548 28.1277 12.368 28.1595 12.368 28.1926V32.1566C12.3679 32.1897 12.3547 32.2214 12.3312 32.2449C12.3078 32.2683 12.2761 32.2815 12.243 32.2816H6.875C6.84189 32.2815 6.81017 32.2683 6.78676 32.2449C6.76334 32.2214 6.75013 32.1897 6.75 32.1566V28.1926Z" fill="#A3A3A3"/>
<path d="M21.8355 34.0316H27.2035C27.7006 34.031 28.1771 33.8332 28.5286 33.4817C28.8801 33.1302 29.0779 32.6537 29.0785 32.1566V28.1926C29.078 27.6955 28.8803 27.2189 28.5288 26.8674C28.1772 26.5159 27.7006 26.3182 27.2035 26.3176H21.8355C21.3384 26.3182 20.8618 26.5159 20.5103 26.8674C20.1588 27.2189 19.961 27.6955 19.9605 28.1926V32.1566C19.9612 32.6537 20.1589 33.1302 20.5104 33.4817C20.8619 33.8332 21.3384 34.031 21.8355 34.0316ZM21.7105 28.1926C21.7106 28.1595 21.7239 28.1278 21.7473 28.1044C21.7707 28.081 21.8024 28.0678 21.8355 28.0676H27.2035C27.2367 28.0676 27.2685 28.0808 27.2919 28.1042C27.3153 28.1277 27.3285 28.1595 27.3285 28.1926V32.1566C27.3284 32.1897 27.3152 32.2214 27.2918 32.2449C27.2683 32.2683 27.2366 32.2815 27.2035 32.2816H21.8355C21.8024 32.2815 21.7707 32.2683 21.7473 32.2449C21.7239 32.2214 21.7106 32.1897 21.7105 32.1566V28.1926Z" fill="#A3A3A3"/>
<path d="M36.7965 34.0316H42.1645C42.6616 34.031 43.1381 33.8332 43.4896 33.4817C43.8411 33.1302 44.0388 32.6537 44.0395 32.1566V28.1926C44.0388 27.6955 43.8411 27.219 43.4896 26.8675C43.1381 26.516 42.6616 26.3183 42.1645 26.3176H36.7965C36.2994 26.3182 35.8228 26.5159 35.4713 26.8674C35.1198 27.2189 34.922 27.6955 34.9215 28.1926V32.1566C34.9222 32.6537 35.1199 33.1302 35.4714 33.4817C35.8229 33.8332 36.2994 34.031 36.7965 34.0316ZM36.6715 28.1926C36.6715 28.1595 36.6847 28.1277 36.7081 28.1042C36.7316 28.0808 36.7634 28.0676 36.7965 28.0676H42.1645C42.1977 28.0676 42.2295 28.0808 42.2529 28.1042C42.2763 28.1277 42.2895 28.1595 42.2895 28.1926V32.1566C42.2894 32.1897 42.2762 32.2214 42.2527 32.2449C42.2293 32.2683 42.1976 32.2815 42.1645 32.2816H36.7965C36.7634 32.2815 36.7317 32.2683 36.7083 32.2449C36.6848 32.2214 36.6716 32.1897 36.6715 32.1566V28.1926Z" fill="#A3A3A3"/>
<path d="M51.757 34.0316H57.125C57.6221 34.031 58.0986 33.8332 58.4501 33.4817C58.8016 33.1302 58.9994 32.6537 59 32.1566V28.1926C58.9994 27.6955 58.8016 27.219 58.4501 26.8675C58.0986 26.516 57.6221 26.3183 57.125 26.3176H51.757C51.2599 26.3182 50.7833 26.5159 50.4318 26.8674C50.0803 27.2189 49.8825 27.6955 49.882 28.1926V32.1566C49.8827 32.6537 50.0804 33.1302 50.4319 33.4817C50.7834 33.8332 51.2599 34.031 51.757 34.0316ZM51.632 28.1926C51.632 28.1595 51.6452 28.1277 51.6686 28.1042C51.6921 28.0808 51.7239 28.0676 51.757 28.0676H57.125C57.1582 28.0676 57.19 28.0808 57.2134 28.1042C57.2369 28.1277 57.25 28.1595 57.25 28.1926V32.1566C57.2499 32.1897 57.2367 32.2214 57.2133 32.2449C57.1899 32.2683 57.1581 32.2815 57.125 32.2816H51.757C51.7239 32.2815 51.6922 32.2683 51.6688 32.2449C51.6454 32.2214 51.6322 32.1897 51.632 32.1566V28.1926Z" fill="#A3A3A3"/>
<path d="M6.875 44.3595H12.243C12.7401 44.3589 13.2166 44.1611 13.5681 43.8096C13.9196 43.4581 14.1173 42.9816 14.118 42.4845V38.5205C14.1173 38.0234 13.9196 37.5469 13.5681 37.1954C13.2166 36.8439 12.7401 36.6462 12.243 36.6455H6.875C6.37792 36.6462 5.90139 36.8439 5.54991 37.1954C5.19842 37.5469 5.00066 38.0234 5 38.5205V42.4845C5.00066 42.9816 5.19842 43.4581 5.54991 43.8096C5.90139 44.1611 6.37792 44.3589 6.875 44.3595V44.3595ZM6.75 38.5205C6.75 38.4874 6.76317 38.4556 6.78661 38.4321C6.81005 38.4087 6.84185 38.3955 6.875 38.3955H12.243C12.2762 38.3955 12.3079 38.4087 12.3314 38.4321C12.3548 38.4556 12.368 38.4874 12.368 38.5205V42.4845C12.3679 42.5176 12.3547 42.5493 12.3312 42.5728C12.3078 42.5962 12.2761 42.6094 12.243 42.6095H6.875C6.84189 42.6094 6.81017 42.5962 6.78676 42.5728C6.76334 42.5493 6.75013 42.5176 6.75 42.4845V38.5205Z" fill="#A3A3A3"/>
<path d="M21.8355 44.3595H27.2035C27.7006 44.3589 28.1771 44.1611 28.5286 43.8096C28.8801 43.4581 29.0779 42.9816 29.0785 42.4845V38.5205C29.0779 38.0234 28.8801 37.5469 28.5286 37.1954C28.1771 36.8439 27.7006 36.6462 27.2035 36.6455H21.8355C21.3384 36.6462 20.8619 36.8439 20.5104 37.1954C20.1589 37.5469 19.9612 38.0234 19.9605 38.5205V42.4845C19.9612 42.9816 20.1589 43.4581 20.5104 43.8096C20.8619 44.1611 21.3384 44.3589 21.8355 44.3595ZM21.7105 38.5205C21.7106 38.4874 21.7239 38.4557 21.7473 38.4323C21.7707 38.4089 21.8024 38.3956 21.8355 38.3955H27.2035C27.2367 38.3955 27.2685 38.4087 27.2919 38.4321C27.3153 38.4556 27.3285 38.4874 27.3285 38.5205V42.4845C27.3284 42.5176 27.3152 42.5493 27.2918 42.5728C27.2683 42.5962 27.2366 42.6094 27.2035 42.6095H21.8355C21.8024 42.6094 21.7707 42.5962 21.7473 42.5728C21.7239 42.5493 21.7106 42.5176 21.7105 42.4845V38.5205Z" fill="#A3A3A3"/>
<path d="M36.7965 44.3595H42.1645C42.6616 44.3589 43.1381 44.1611 43.4896 43.8096C43.8411 43.4581 44.0388 42.9816 44.0395 42.4845V38.5205C44.0388 38.0234 43.8411 37.5469 43.4896 37.1954C43.1381 36.8439 42.6616 36.6462 42.1645 36.6455H36.7965C36.2994 36.6462 35.8229 36.8439 35.4714 37.1954C35.1199 37.5469 34.9222 38.0234 34.9215 38.5205V42.4845C34.9222 42.9816 35.1199 43.4581 35.4714 43.8096C35.8229 44.1611 36.2994 44.3589 36.7965 44.3595ZM36.6715 38.5205C36.6715 38.4874 36.6847 38.4556 36.7081 38.4321C36.7316 38.4087 36.7634 38.3955 36.7965 38.3955H42.1645C42.1977 38.3955 42.2295 38.4087 42.2529 38.4321C42.2763 38.4556 42.2895 38.4874 42.2895 38.5205V42.4845C42.2894 42.5176 42.2762 42.5493 42.2527 42.5728C42.2293 42.5962 42.1976 42.6094 42.1645 42.6095H36.7965C36.7634 42.6094 36.7317 42.5962 36.7083 42.5728C36.6848 42.5493 36.6716 42.5176 36.6715 42.4845V38.5205Z" fill="#A3A3A3"/>
<path d="M51.757 44.3595H57.125C57.6221 44.3589 58.0986 44.1611 58.4501 43.8096C58.8016 43.4581 58.9994 42.9816 59 42.4845V38.5205C58.9994 38.0234 58.8016 37.5469 58.4501 37.1954C58.0986 36.8439 57.6221 36.6462 57.125 36.6455H51.757C51.2599 36.6462 50.7834 36.8439 50.4319 37.1954C50.0804 37.5469 49.8827 38.0234 49.882 38.5205V42.4845C49.8827 42.9816 50.0804 43.4581 50.4319 43.8096C50.7834 44.1611 51.2599 44.3589 51.757 44.3595ZM51.632 38.5205C51.632 38.4874 51.6452 38.4556 51.6686 38.4321C51.6921 38.4087 51.7239 38.3955 51.757 38.3955H57.125C57.1582 38.3955 57.19 38.4087 57.2134 38.4321C57.2369 38.4556 57.25 38.4874 57.25 38.5205V42.4845C57.2499 42.5176 57.2367 42.5493 57.2133 42.5728C57.1899 42.5962 57.1581 42.6094 57.125 42.6095H51.757C51.7239 42.6094 51.6922 42.5962 51.6688 42.5728C51.6454 42.5493 51.6322 42.5176 51.632 42.4845V38.5205Z" fill="#A3A3A3"/>
<path d="M6.875 54.6878H12.243C12.7401 54.6872 13.2166 54.4894 13.5681 54.1379C13.9196 53.7865 14.1173 53.3099 14.118 52.8128V48.8498C14.1173 48.3528 13.9196 47.8762 13.5681 47.5248C13.2166 47.1733 12.7401 46.9755 12.243 46.9749H6.875C6.37792 46.9755 5.90139 47.1733 5.54991 47.5248C5.19842 47.8762 5.00066 48.3528 5 48.8498V52.8138C5.00093 53.3107 5.1988 53.787 5.55026 54.1383C5.90172 54.4896 6.3781 54.6872 6.875 54.6878V54.6878ZM6.75 48.8498C6.75 48.8167 6.76317 48.7849 6.78661 48.7615C6.81005 48.738 6.84185 48.7249 6.875 48.7249H12.243C12.2762 48.7249 12.3079 48.738 12.3314 48.7615C12.3548 48.7849 12.368 48.8167 12.368 48.8498V52.8138C12.368 52.847 12.3548 52.8788 12.3314 52.9022C12.3079 52.9257 12.2762 52.9388 12.243 52.9388H6.875C6.84185 52.9388 6.81005 52.9257 6.78661 52.9022C6.76317 52.8788 6.75 52.847 6.75 52.8138V48.8498Z" fill="#A3A3A3"/>
<path d="M21.8355 54.6878H27.2035C27.7006 54.6872 28.1771 54.4894 28.5286 54.1379C28.8801 53.7865 29.0779 53.3099 29.0785 52.8128V48.8498C29.0779 48.3528 28.8801 47.8762 28.5286 47.5248C28.1771 47.1733 27.7006 46.9755 27.2035 46.9749H21.8355C21.3384 46.9755 20.8619 47.1733 20.5104 47.5248C20.1589 47.8762 19.9612 48.3528 19.9605 48.8498V52.8138C19.9614 53.3107 20.1593 53.787 20.5108 54.1383C20.8622 54.4896 21.3386 54.6872 21.8355 54.6878ZM21.7105 48.8498C21.7106 48.8167 21.7239 48.785 21.7473 48.7616C21.7707 48.7382 21.8024 48.725 21.8355 48.7249H27.2035C27.2367 48.7249 27.2685 48.738 27.2919 48.7615C27.3153 48.7849 27.3285 48.8167 27.3285 48.8498V52.8138C27.3285 52.847 27.3153 52.8788 27.2919 52.9022C27.2685 52.9257 27.2367 52.9388 27.2035 52.9388H21.8355C21.8024 52.9387 21.7707 52.9255 21.7473 52.9021C21.7239 52.8787 21.7106 52.847 21.7105 52.8138V48.8498Z" fill="#A3A3A3"/>
<path d="M43.408 47.4527C43.2236 47.3118 42.9908 47.2499 42.7608 47.2807C42.5308 47.3114 42.3224 47.4323 42.1815 47.6167L38.5315 52.3887L36.4815 49.8002C36.4101 49.7102 36.3218 49.6351 36.2214 49.5792C36.1211 49.5233 36.0107 49.4878 35.8966 49.4746C35.7825 49.4614 35.6669 49.4708 35.5564 49.5022C35.4459 49.5337 35.3428 49.5866 35.2527 49.6579C35.1627 49.7293 35.0876 49.8176 35.0318 49.918C34.9759 50.0184 34.9403 50.1287 34.9271 50.2428C34.9139 50.3569 34.9233 50.4725 34.9548 50.583C34.9862 50.6935 35.0391 50.7967 35.1105 50.8867L37.8605 54.3567C37.9424 54.4601 38.0466 54.5436 38.1653 54.601C38.284 54.6584 38.4141 54.6882 38.546 54.6882H38.5535C38.6866 54.6869 38.8178 54.6553 38.9369 54.5958C39.056 54.5363 39.16 54.4504 39.241 54.3447L43.571 48.6792C43.6409 48.588 43.6921 48.4839 43.7217 48.3729C43.7513 48.2618 43.7588 48.1461 43.7437 48.0322C43.7285 47.9182 43.6911 47.8084 43.6335 47.709C43.5759 47.6096 43.4993 47.5225 43.408 47.4527Z" fill="#A3A3A3"/>
<path d="M58.3685 47.4527C58.1841 47.3118 57.9513 47.2499 57.7213 47.2807C57.4913 47.3114 57.2829 47.4323 57.142 47.6167L53.495 52.3887L51.445 49.8002C51.3736 49.7102 51.2853 49.6351 51.1849 49.5792C51.0846 49.5233 50.9742 49.4878 50.8601 49.4746C50.746 49.4614 50.6304 49.4708 50.5199 49.5022C50.4094 49.5337 50.3063 49.5866 50.2162 49.6579C50.1262 49.7293 50.0511 49.8176 49.9953 49.918C49.9394 50.0184 49.9038 50.1287 49.8906 50.2428C49.8774 50.3569 49.8868 50.4725 49.9183 50.583C49.9497 50.6935 50.0026 50.7967 50.074 50.8867L52.824 54.3567C52.906 54.4601 53.0102 54.5436 53.129 54.601C53.2478 54.6584 53.3781 54.6882 53.51 54.6882H53.5175C53.6506 54.6869 53.7818 54.6553 53.9009 54.5958C54.02 54.5363 54.124 54.4504 54.205 54.3447L58.5345 48.6792C58.6041 48.5878 58.6551 48.4835 58.6845 48.3724C58.7138 48.2613 58.721 48.1454 58.7056 48.0315C58.6902 47.9176 58.6525 47.8079 58.5946 47.7086C58.5368 47.6093 58.4599 47.5223 58.3685 47.4527V47.4527Z" fill="#A3A3A3"/>
</svg>
