<svg width="60" height="60" viewBox="0 0 60 60" fill="none" xmlns="http://www.w3.org/2000/svg">
<path d="M56.9998 0H2.99982C1.29458 0.0544156 -0.0461797 1.47651 -0.000182354 3.182V46.818C-0.0461797 48.5235 1.29458 49.9456 2.99982 50H20.3818L18.3818 54H14.9998C13.343 54 11.9998 55.3431 11.9998 57C11.9998 58.6569 13.343 60 14.9998 60H44.9998C46.6567 60 47.9998 58.6569 47.9998 57C47.9998 55.3431 46.6567 54 44.9998 54H41.6178L39.6178 50H56.9998C58.7051 49.9456 60.0458 48.5235 59.9998 46.818V3.182C60.0458 1.47651 58.7051 0.0544156 56.9998 0V0ZM45.9998 57C45.9998 57.5523 45.5521 58 44.9998 58H14.9998C14.4475 58 13.9998 57.5523 13.9998 57C13.9998 56.4477 14.4475 56 14.9998 56H44.9998C45.5521 56 45.9998 56.4477 45.9998 57ZM39.3818 54H20.6178L22.6178 50H37.3818L39.3818 54ZM56.9998 48H2.99982C2.4032 47.9384 1.96174 47.4166 1.99982 46.818V44H5.99982C6.5521 44 6.99982 43.5523 6.99982 43C6.99982 42.4477 6.5521 42 5.99982 42H1.99982V3.182C1.96174 2.58342 2.4032 2.06162 2.99982 2H56.9998C57.5964 2.06162 58.0379 2.58342 57.9998 3.182V42H9.99982C9.44753 42 8.99982 42.4477 8.99982 43C8.99982 43.5523 9.44753 44 9.99982 44H57.9998V46.818C58.0379 47.4166 57.5964 47.9384 56.9998 48Z" fill="#AFAFAF"/>
<path d="M29.9999 39C31.6568 39 32.9999 37.6569 32.9999 36V32C32.9947 30.7332 32.1943 29.6063 30.9999 29.184V26.816C32.1943 26.3937 32.9947 25.2668 32.9999 24V20C32.9947 18.7332 32.1943 17.6063 30.9999 17.184V14.816C32.1943 14.3937 32.9947 13.2668 32.9999 12V8C32.9999 6.34315 31.6568 5 29.9999 5H9.99993C8.34308 5 6.99993 6.34315 6.99993 8V12C7.00518 13.2668 7.80558 14.3937 8.99993 14.816V17.184C7.80558 17.6063 7.00518 18.7332 6.99993 20V24C7.00518 25.2668 7.80558 26.3937 8.99993 26.816V29.184C7.80558 29.6063 7.00518 30.7332 6.99993 32V36C6.99993 37.6569 8.34308 39 9.99993 39H29.9999ZM10.9999 27H28.9999V29H10.9999V27ZM10.9999 15H28.9999V17H10.9999V15ZM8.99993 8C8.99993 7.44772 9.44765 7 9.99993 7H29.9999C30.5522 7 30.9999 7.44772 30.9999 8V12C30.9999 12.5523 30.5522 13 29.9999 13H9.99993C9.44765 13 8.99993 12.5523 8.99993 12V8ZM8.99993 20C8.99993 19.4477 9.44765 19 9.99993 19H29.9999C30.5522 19 30.9999 19.4477 30.9999 20V24C30.9999 24.5523 30.5522 25 29.9999 25H9.99993C9.44765 25 8.99993 24.5523 8.99993 24V20ZM8.99993 36V32C8.99993 31.4477 9.44765 31 9.99993 31H29.9999C30.5522 31 30.9999 31.4477 30.9999 32V36C30.9999 36.5523 30.5522 37 29.9999 37H9.99993C9.44765 37 8.99993 36.5523 8.99993 36Z" fill="#AFAFAF"/>
<path d="M35.9999 27C35.4476 27 34.9999 27.4477 34.9999 28C34.9999 28.5523 35.4476 29 35.9999 29C39.8659 29 42.9999 25.866 42.9999 22C42.9999 18.134 39.8659 15 35.9999 15C35.4476 15 34.9999 15.4477 34.9999 16C34.9999 16.5523 35.4476 17 35.9999 17C38.7614 17 40.9999 19.2386 40.9999 22C40.9999 24.7614 38.7614 27 35.9999 27Z" fill="#AFAFAF"/>
<path d="M35.9999 39H37.3229C38.1416 39.0031 38.8786 38.5043 39.1799 37.743L40.6219 34.143C40.8533 34.0537 41.0833 33.9573 41.3119 33.854L44.8829 35.384C45.6337 35.7081 46.5064 35.54 47.0829 34.96L48.9549 33.089C49.5343 32.5121 49.702 31.6396 49.3779 30.889L47.8479 27.318C47.9519 27.0887 48.0483 26.8587 48.1369 26.628L51.7369 25.186C52.5026 24.8858 53.0046 24.1454 52.9999 23.323V20.677C53.003 19.8583 52.5042 19.1213 51.7429 18.82L48.1429 17.378C48.0536 17.1467 47.9573 16.9167 47.8539 16.688L49.3849 13.116C49.7082 12.365 49.5397 11.4926 48.9599 10.916L47.0849 9.04302C46.508 8.46368 45.6355 8.29593 44.8849 8.62002L41.3139 10.15C41.0853 10.046 40.8553 9.94968 40.6239 9.86102L39.1819 6.26102C38.8816 5.4975 38.1434 4.99671 37.3229 5.00002H35.9999C35.4476 5.00002 34.9999 5.44773 34.9999 6.00002C34.9999 6.5523 35.4476 7.00002 35.9999 7.00002H37.3229L38.9309 11.02C39.0394 11.2909 39.2607 11.5009 39.5369 11.595C39.9859 11.7492 40.4245 11.9323 40.8499 12.143C41.1121 12.2727 41.418 12.2811 41.6869 12.166L45.6709 10.458L47.5419 12.329L45.8339 16.313C45.7188 16.5819 45.7272 16.8878 45.8569 17.15C46.0677 17.5754 46.2507 18.014 46.4049 18.463C46.499 18.7392 46.709 18.9606 46.9799 19.069L50.9999 20.677V23.323L46.9799 24.931C46.709 25.0394 46.499 25.2608 46.4049 25.537C46.2507 25.986 46.0677 26.4246 45.8569 26.85C45.7272 27.1122 45.7188 27.4181 45.8339 27.687L47.5419 31.671L45.6709 33.542L41.6869 31.834C41.418 31.7189 41.1121 31.7273 40.8499 31.857C40.4245 32.0678 39.9859 32.2508 39.5369 32.405C39.2607 32.4991 39.0394 32.7091 38.9309 32.98L37.3229 37H35.9999C35.4476 37 34.9999 37.4477 34.9999 38C34.9999 38.5523 35.4476 39 35.9999 39Z" fill="#AFAFAF"/>
<path d="M12 11H16C16.5522 11 17 10.5523 17 10C17 9.44772 16.5522 9 16 9H12C11.4477 9 11 9.44772 11 10C11 10.5523 11.4477 11 12 11Z" fill="#AFAFAF"/>
<path d="M12 23H16C16.5522 23 17 22.5523 17 22C17 21.4477 16.5522 21 16 21H12C11.4477 21 11 21.4477 11 22C11 22.5523 11.4477 23 12 23Z" fill="#AFAFAF"/>
<path d="M12 35H16C16.5522 35 17 34.5523 17 34C17 33.4477 16.5522 33 16 33H12C11.4477 33 11 33.4477 11 34C11 34.5523 11.4477 35 12 35Z" fill="#AFAFAF"/>
<path d="M27.9999 11C28.5522 11 28.9999 10.5523 28.9999 10C28.9999 9.44772 28.5522 9 27.9999 9C27.4476 9 26.9999 9.44772 26.9999 10C26.9999 10.5523 27.4476 11 27.9999 11Z" fill="#AFAFAF"/>
<path d="M27.9999 23C28.5522 23 28.9999 22.5523 28.9999 22C28.9999 21.4477 28.5522 21 27.9999 21C27.4476 21 26.9999 21.4477 26.9999 22C26.9999 22.5523 27.4476 23 27.9999 23Z" fill="#AFAFAF"/>
<path d="M27.9999 35C28.5522 35 28.9999 34.5523 28.9999 34C28.9999 33.4477 28.5522 33 27.9999 33C27.4476 33 26.9999 33.4477 26.9999 34C26.9999 34.5523 27.4476 35 27.9999 35Z" fill="#AFAFAF"/>
</svg>
