<svg width="21" height="21" viewBox="0 0 21 21" fill="none" xmlns="http://www.w3.org/2000/svg">
<g clip-path="url(#clip0)">
<path d="M10.5765 12.5795L19.1882 3.12724L20.3251 4.16305L10.6555 14.7766L5.38404 9.7654L6.44387 8.65065L10.5765 12.5795ZM19.7279 7.07724L18.5285 8.39783C18.7027 9.06642 18.7954 9.76745 18.7954 10.4897C18.7954 15.0694 15.0694 18.7954 10.4898 18.7954C5.91011 18.7954 2.1841 15.0694 2.1841 10.4897C2.1841 5.9101 5.91011 2.18408 10.4898 2.18408C12.6114 2.18408 14.5493 2.98413 16.0191 4.29775L17.0559 3.15608C15.2483 1.53376 12.9374 0.645996 10.4898 0.645996C7.86048 0.645996 5.38836 1.6699 3.5292 3.52919C1.66992 5.38835 0.646011 7.86046 0.646011 10.4897C0.646011 13.119 1.66992 15.5911 3.5292 17.4503C5.38836 19.3096 7.86048 20.3335 10.4898 20.3335C13.119 20.3335 15.5912 19.3096 17.4503 17.4503C19.3096 15.5911 20.3335 13.119 20.3335 10.4897C20.3335 9.30638 20.1255 8.15522 19.7279 7.07724Z" fill="#00FF00"/>
</g>
<defs>
<clipPath id="clip0">
<rect width="21" height="21" fill="white"/>
</clipPath>
</defs>
</svg>
