<svg width="54" height="52" viewBox="0 0 54 52" fill="none" xmlns="http://www.w3.org/2000/svg">
<path d="M51.7003 32.7821C51.4096 32.9759 51.103 33.1465 50.7834 33.2921C50.4009 33.48 49.7614 33.7945 49.7163 34.0155C49.6601 34.3057 49.6961 34.6054 49.8197 34.8757C49.9513 35.1477 50.09 35.3814 50.2083 35.5837C50.5325 36.1328 51.0731 37.0534 50.2569 37.696C50.0661 37.866 49.7366 38.1116 49.4354 38.3335C49.6568 38.7054 49.7571 39.1326 49.7234 39.56C49.677 39.8945 49.4894 40.1958 49.2049 40.393C49.0061 40.529 48.7932 40.648 48.5865 40.7628C48.0671 41.0475 47.864 41.1801 47.7915 41.4428C47.744 41.7886 47.7772 42.1402 47.8887 42.4721C47.9408 42.6931 47.9912 42.9133 48.0239 43.1394C48.1114 43.9146 48.0092 44.6988 47.7253 45.4293C47.3289 46.7828 46.0568 47.7259 44.5956 47.7498C44.3531 47.7489 44.1113 47.7244 43.874 47.6767C41.3504 47.1012 38.8638 46.3851 36.4266 45.5321C34.4373 46.6558 33.1794 50.0728 32.8517 51.3555C32.7535 51.7343 32.3998 52 31.994 51.9998L9.82235 51.9403C9.54136 51.9397 9.2774 51.8106 9.11139 51.5925C8.94537 51.3743 8.89712 51.0932 8.98141 50.8353C9.19987 50.2594 9.50107 49.7158 9.87623 49.2203C10.0884 48.9271 10.2797 48.6204 10.4486 48.3023C10.8481 47.5227 11.1816 46.7134 11.4459 45.8823C11.9498 44.2395 12.2995 42.5566 12.4909 40.8537C12.801 38.3107 12.4003 35.7341 11.3302 33.3899C10.6772 32.0897 9.87228 30.8655 8.93106 29.7408C8.40106 29.0523 7.85075 28.3392 7.35696 27.5903C6.50796 26.3212 5.89241 24.9209 5.5373 23.4508C5.43567 22.997 5.73121 22.5487 6.20115 22.4437C6.67109 22.3388 7.1416 22.6161 7.25803 23.0666C7.5686 24.3497 8.10646 25.5717 8.84803 26.6791C9.30648 27.377 9.83648 28.0638 10.3497 28.7285C11.3718 29.9557 12.2441 31.2919 12.9493 32.7107C14.1456 35.3325 14.5927 38.2141 14.2443 41.0577C14.0406 42.8637 13.6678 44.6483 13.1304 46.3898C12.8402 47.3042 12.4736 48.1945 12.0342 49.052C11.8328 49.4351 11.6041 49.8043 11.3496 50.157L11.2904 50.242L31.3262 50.2998C31.9133 48.2835 32.9779 46.4256 34.4364 44.8717L33.6414 44.6056C33.0478 44.4059 32.6 44.2554 32.3685 44.1806C28.5861 43.0204 26.694 41.3629 26.7461 39.2506C26.7486 39.025 26.8458 38.8099 27.0157 38.6545C27.1856 38.499 27.4137 38.4163 27.648 38.4253C28.1356 38.4364 28.5215 38.8256 28.5101 39.2948C28.4889 40.1644 29.2336 41.4377 32.9056 42.5631C33.1459 42.637 33.6123 42.7926 34.2227 42.9991C34.879 43.2193 35.7111 43.4998 36.6297 43.7998H36.6359C39.1201 44.6763 41.6548 45.4142 44.2273 46.0098C45.0501 46.1587 45.8499 45.6614 46.047 44.8785C46.2369 44.3987 46.3115 43.8837 46.2651 43.3723C46.2395 43.2023 46.198 43.0238 46.1574 42.8504C45.9694 42.257 45.939 41.6278 46.069 41.0203C46.3256 40.2419 46.9205 39.609 47.6997 39.2855L47.8896 39.1809C47.7944 38.9948 47.6802 38.8183 47.5486 38.6539C47.4006 38.473 47.3352 38.2421 47.3673 38.0139C47.3995 37.7858 47.5264 37.58 47.7191 37.4435C47.9302 37.2939 48.4258 36.9335 48.7968 36.6496C48.7544 36.5757 48.7084 36.4941 48.6634 36.421C48.5247 36.1864 48.3657 35.911 48.212 35.599C47.9321 35.0036 47.85 34.3395 47.977 33.6976C48.1882 32.6606 49.2208 32.1523 49.9743 31.7817C50.2281 31.6654 50.4716 31.5293 50.7021 31.3745C50.8914 31.2525 51.0688 31.1143 51.2321 30.9614C51.2321 30.8322 51.0881 30.5203 50.4159 29.7323C48.8353 27.7726 47.4803 25.6536 46.3747 23.4126C46.1671 23.0612 46.0502 22.6672 46.0337 22.2634C46.1262 21.4081 46.5988 20.6332 47.3296 20.1384C47.6873 19.8222 48.0256 19.5247 48.0636 19.2739C48.0555 19.0656 48.007 18.8607 47.9205 18.6696C47.7765 18.3058 47.6096 17.9488 47.4435 17.5909C47.071 16.8526 46.7751 16.0808 46.5602 15.2866C46.3578 14.3339 46.0922 13.3948 45.7652 12.4748C45.0689 10.6253 43.9908 8.93068 42.5958 7.49291C40.9068 5.77166 38.248 4.55446 34.6793 3.87276C31.9496 3.29607 29.1798 2.91198 26.3919 2.72356C25.4539 2.67704 24.5136 2.69636 23.5785 2.78136C23.2635 2.8096 22.9569 2.67401 22.774 2.42567C22.5911 2.17732 22.5598 1.85395 22.6918 1.57737C22.8239 1.30078 23.0992 1.113 23.4142 1.08476C24.4349 0.994759 25.461 0.975159 26.4847 1.02611C29.3587 1.218 32.2142 1.61232 35.0283 2.20591C39.0112 2.97091 41.9059 4.31476 43.881 6.32416C45.4407 7.92855 46.6463 9.82049 47.425 11.8857C47.7829 12.8907 48.0736 13.9168 48.295 14.9576C48.4838 15.6251 48.7376 16.274 49.0529 16.8956C49.2296 17.2824 49.4116 17.6691 49.5706 18.0712C49.7716 18.5206 49.8541 19.0108 49.8108 19.4983C49.6281 20.257 49.1698 20.928 48.5185 21.3904C48.0857 21.7721 47.8004 22.0407 47.7968 22.2753C47.829 22.4043 47.8795 22.5284 47.947 22.6442C49.0046 24.7875 50.3007 26.8141 51.8125 28.6885C52.452 29.4391 53.1233 30.3137 52.9829 31.1892C52.7948 31.8643 52.3326 32.4383 51.7003 32.7821Z" fill="#AFAFAF"/>
<path d="M42.4549 13.6557C41.9229 12.2366 41.0985 10.9355 40.031 9.83066C38.8535 8.63131 36.8174 7.74816 33.9784 7.20501C33.4998 7.11371 33.1888 6.66636 33.2837 6.20584C33.3785 5.74532 33.8434 5.44601 34.322 5.53731C37.5276 6.15101 39.8799 7.20161 41.3145 8.66021C42.5471 9.93327 43.499 11.4334 44.1129 13.07C44.4102 13.9192 44.6524 14.7853 44.8381 15.6634L43.1129 16.0314C42.9436 15.2274 42.7239 14.4341 42.4549 13.6557Z" fill="#AFAFAF"/>
<path d="M23.9746 5.76003L24.5046 8.30323C25.0156 8.46467 25.5129 8.66359 25.9922 8.89823L28.2349 7.45323C28.9357 7.01162 29.8624 7.10427 30.4539 7.67507L31.9202 9.08523C32.5251 9.65664 32.6229 10.5609 32.1534 11.24L30.6588 13.3879C30.9027 13.8491 31.1094 14.3277 31.2772 14.8193L33.9166 15.3293C34.7413 15.4896 35.3341 16.1874 35.3334 16.997V19.003C35.334 19.8113 34.7431 20.5082 33.9201 20.6699L31.2772 21.1799C31.1094 21.6715 30.9027 22.1501 30.6588 22.6113L32.1605 24.7694C32.6194 25.4437 32.5231 26.3355 31.9299 26.9046L30.4636 28.3156C29.8687 28.895 28.9311 28.9886 28.2252 28.5392L25.993 27.101C25.5137 27.3356 25.0164 27.5345 24.5055 27.696L23.9755 30.2358C23.8093 31.0297 23.0841 31.6006 22.2424 31.6H20.1577C19.3178 31.6006 18.5935 31.032 18.4255 30.24L17.8955 27.6968C17.3846 27.5354 16.8873 27.3365 16.408 27.1018L14.1652 28.5468C13.4644 28.9884 12.5377 28.8958 11.9463 28.325L10.4808 26.9148C9.87597 26.3434 9.7781 25.4392 10.2476 24.7601L11.7422 22.6121C11.4984 22.1509 11.2917 21.6724 11.1239 21.1807L8.48448 20.6707C7.96021 20.5687 7.51261 20.2428 7.26813 19.785L5.93695 20.6435C5.6801 20.7992 5.3828 20.882 5.07923 20.8824C4.65576 20.8825 4.24975 20.72 3.95121 20.431L2.77638 19.3005C2.24211 18.7838 2.15629 17.9779 2.57056 17.3676L3.71006 15.7271C3.54478 15.4075 3.40194 15.0775 3.28253 14.7394L1.28354 14.3561C0.535628 14.2147 -0.0028048 13.5825 5.81741e-05 12.849V11.251C-0.00262151 10.5203 0.532027 9.88978 1.27648 9.74567L3.28429 9.36063C3.40277 9.02248 3.54503 8.69249 3.71006 8.37293L2.55289 6.71288C2.15192 6.10488 2.24373 5.31045 2.77373 4.80208L3.94856 3.67158C4.4854 3.15715 5.32317 3.07455 5.95726 3.47353L7.6621 4.57002C7.99431 4.41098 8.33722 4.27354 8.68853 4.15863L9.0878 2.23507C9.23467 1.5157 9.8912 0.997678 10.6531 1.00002H12.3137C13.0731 0.997446 13.7284 1.51192 13.8781 2.22827L14.2783 4.16033C14.6297 4.27516 14.9727 4.4129 15.3047 4.57258L17.0299 3.45907C17.6619 3.07389 18.487 3.16219 19.0156 3.67158L19.8106 4.43658C19.9248 4.41365 20.0411 4.40141 20.1577 4.40003H22.2424C23.0824 4.39946 23.8066 4.96808 23.9746 5.76003ZM10.4702 9.09203L10.8827 8.69508C9.35165 8.8923 8.13384 10.0283 7.8815 11.4948C7.62916 12.9613 8.40144 14.4145 9.78475 15.076L11.1257 14.821C11.2934 14.3294 11.5001 13.8508 11.744 13.3896L10.2423 11.2315C9.78174 10.5574 9.87695 9.66461 10.4702 9.09458V9.09203ZM17.8637 4.96443L15.8444 6.27002C15.5613 6.45275 15.1941 6.46234 14.901 6.29468C14.3954 6.00831 13.8515 5.78955 13.2845 5.64443C12.9605 5.56023 12.7141 5.30663 12.6485 4.98992L12.1742 2.70003H10.7926L10.3183 4.99502C10.2527 5.31174 10.0063 5.56533 9.68228 5.64952C9.11527 5.79465 8.57144 6.01341 8.06578 6.29978C7.77171 6.46592 7.40452 6.45434 7.12238 6.27002L5.10308 4.96613L4.12258 5.90963L5.47673 7.85357C5.66662 8.12606 5.67659 8.47938 5.50235 8.76137C5.20475 9.24795 4.97741 9.77126 4.8266 10.3169C4.7391 10.6286 4.47556 10.8658 4.14643 10.9289L1.76143 11.3853V12.7147L4.14201 13.1712C4.47114 13.2343 4.73468 13.4714 4.82218 13.7832C4.97299 14.3288 5.20033 14.8521 5.49793 15.3387C5.67217 15.6207 5.6622 15.974 5.47231 16.2465L4.11728 18.1896L5.09778 19.1331L7.06673 17.8657V16.997C7.06663 16.4994 7.2925 16.0265 7.68507 15.7025C6.12992 14.2609 5.64199 12.0542 6.45253 10.1282C7.26308 8.20229 9.20921 6.94412 11.3686 6.95003C11.9026 6.95326 12.4329 7.03701 12.94 7.19823C13.3716 7.13772 13.8113 7.2308 14.1767 7.46003L16.4071 8.89823C16.8864 8.66359 17.3837 8.46467 17.8946 8.30323L18.4246 5.76343C18.4403 5.69532 18.4606 5.6283 18.4856 5.56283L17.8637 4.96443ZM22.8784 9.14047L22.2424 6.10003H20.1577L19.5226 9.14303C19.4566 9.45886 19.2107 9.71163 18.8875 9.79582C18.1577 9.98515 17.4566 10.2652 16.802 10.6288C16.5102 10.7916 16.1476 10.7804 15.8674 10.5999L13.1944 8.87953L11.714 10.2965L13.5071 12.8711C13.6947 13.1408 13.7064 13.4897 13.5372 13.7704C13.1592 14.4004 12.8682 15.075 12.6715 15.7773C12.584 16.0882 12.3213 16.3249 11.9931 16.3884L8.8334 16.9962V19.003L11.9957 19.6142C12.324 19.6777 12.5866 19.9144 12.6741 20.2253C12.8709 20.9276 13.1619 21.6022 13.5398 22.2322C13.709 22.5129 13.6974 22.8618 13.5098 23.1315L11.7219 25.7036L13.1944 27.1282L15.87 25.4027C16.1503 25.2222 16.5129 25.211 16.8046 25.3738C17.4592 25.7374 18.1603 26.0175 18.8902 26.2068C19.2133 26.291 19.4592 26.5437 19.5253 26.8596L20.1577 29.9H22.2424L22.8775 26.857C22.9436 26.5412 23.1895 26.2884 23.5126 26.2042C24.2425 26.0149 24.9436 25.7349 25.5982 25.3712C25.8899 25.2084 26.2525 25.2196 26.5328 25.4001L29.2057 27.1205L30.6862 25.7036L28.893 23.1289C28.7054 22.8593 28.6938 22.5103 28.863 22.2296C29.2409 21.5997 29.5319 20.9251 29.7287 20.2228C29.8162 19.9118 30.0788 19.6752 30.4071 19.6116L33.5668 19.003V16.997L30.4044 16.3859C30.0762 16.3223 29.8135 16.0857 29.726 15.7747C29.5293 15.0724 29.2383 14.3978 28.8603 13.7679C28.6911 13.4872 28.7028 13.1382 28.8904 12.8686L30.6782 10.2965L29.2057 8.87187L26.5301 10.5974C26.2499 10.7779 25.8873 10.7891 25.5955 10.6263C24.9409 10.2626 24.2398 9.9826 23.51 9.79328C23.1882 9.70797 22.9439 9.45542 22.8784 9.14047Z" fill="#AFAFAF"/>
<path d="M21.2001 23.95C17.7851 23.95 15.0167 21.2861 15.0167 18C15.0167 14.7139 17.7851 12.05 21.2001 12.05C24.615 12.05 27.3834 14.7139 27.3834 18C27.3795 21.2845 24.6134 23.9462 21.2001 23.95ZM21.2001 13.75C18.7608 13.75 16.7834 15.6528 16.7834 18C16.7834 20.3472 18.7608 22.25 21.2001 22.25C23.6393 22.25 25.6167 20.3472 25.6167 18C25.6138 15.6539 23.6381 13.7528 21.2001 13.75Z" fill="#AFAFAF"/>
<path d="M21.2001 18.85C20.7122 18.85 20.3168 18.4695 20.3168 18C20.3168 17.5306 20.7122 17.15 21.2001 17.15C21.6879 17.15 22.0834 17.5306 22.0834 18C22.0834 18.4695 21.6879 18.85 21.2001 18.85Z" fill="#AFAFAF"/>
<path d="M45.0501 19.7C44.5622 19.7 44.1667 19.3194 44.1667 18.85C44.1667 18.3806 44.5622 18 45.0501 18C45.5379 18 45.9334 18.3806 45.9334 18.85C45.9334 19.3194 45.5379 19.7 45.0501 19.7Z" fill="#AFAFAF"/>
</svg>
