<svg width="60" height="60" viewBox="0 0 60 60" fill="none" xmlns="http://www.w3.org/2000/svg">
<path d="M4.18922 38.4298H16.36L10.5589 44.0287C9.98897 44.5777 9.82452 45.4247 10.1479 46.1467C10.472 46.8683 11.2136 47.3095 12.0026 47.2491L19.658 46.6799V54.8365C19.658 56.1308 20.7075 57.18 22.0018 57.18H55.7522C57.0465 57.18 58.0957 56.1308 58.0957 54.8365V21.0862C58.0957 19.7919 57.0465 18.7427 55.7522 18.7427H39.3455V5.1488C39.3455 3.85447 38.2963 2.80493 37.0019 2.80493H4.18922C2.8949 2.80493 1.8457 3.85447 1.8457 5.1488V36.0863C1.8457 37.3806 2.8949 38.4298 4.18922 38.4298ZM11.8632 45.3769L19.3256 38.1696L19.3582 38.1387L29.0331 28.7945V52.4923L22.9134 45.3124C22.5501 44.8994 22.0276 44.6625 21.4776 44.6625C21.4364 44.6625 21.3962 44.6625 21.356 44.6625L11.8632 45.3769ZM29.7633 27.0772C29.0739 26.7833 28.275 26.9312 27.7357 27.4517L21.5332 33.4379V21.0862C21.5332 20.8273 21.743 20.6175 22.0018 20.6175H37.0019C37.2608 20.6175 37.4706 20.8273 37.4706 21.0862V36.0863C37.4706 36.3452 37.2608 36.5549 37.0019 36.5549H30.9083V28.802C30.9076 28.0491 30.4565 27.3704 29.7633 27.0772ZM56.2208 21.0862V54.8365C56.2174 55.0937 56.009 55.3017 55.7522 55.3052H22.0018C21.7447 55.3017 21.5366 55.0937 21.5332 54.8365V46.5865L27.6083 53.7111C27.9609 54.1272 28.4786 54.3669 29.0238 54.3675C29.248 54.3669 29.4701 54.3267 29.6802 54.2484C30.4201 53.9823 30.9121 53.2792 30.9083 52.4923V38.4298H37.0019C38.2963 38.4298 39.3455 37.3806 39.3455 36.0863V21.0862C39.3455 20.9286 39.3297 20.772 39.2981 20.6175H55.7522C56.009 20.621 56.2174 20.829 56.2208 21.0862ZM3.72059 5.1488C3.72402 4.89165 3.93242 4.68359 4.18922 4.68016H37.0019C37.2594 4.68359 37.4671 4.89165 37.4706 5.1488V18.79C37.3164 18.7588 37.1595 18.7427 37.0019 18.7427H22.0018C20.7075 18.7427 19.658 19.7919 19.658 21.0862V34.68C19.6593 34.8569 19.6731 35.0333 19.6992 35.2077L18.3032 36.5549H4.18922C3.93242 36.5515 3.72402 36.3438 3.72059 36.0863V5.1488Z" fill="#AFAFAF"/>
<path d="M7.47069 18.7428C7.98842 18.7428 8.4083 18.3229 8.4083 17.8055V12.1802C8.4083 11.6625 7.98842 11.2429 7.47069 11.2429C6.95296 11.2429 6.53342 11.6625 6.53342 12.1802V17.8055C6.53342 18.3229 6.95296 18.7428 7.47069 18.7428Z" fill="#AFAFAF"/>
<path d="M7.47069 9.36767C7.98842 9.36767 8.4083 8.94813 8.4083 8.43006V7.49279C8.4083 6.97472 7.98842 6.55518 7.47069 6.55518C6.95296 6.55518 6.53342 6.97472 6.53342 7.49279V8.43006C6.53342 8.94813 6.95296 9.36767 7.47069 9.36767Z" fill="#AFAFAF"/>
</svg>
