<svg width="58" height="53" viewBox="0 0 58 53" fill="none" xmlns="http://www.w3.org/2000/svg">
<path d="M32.75 26.5C32.75 27.0099 32.915 27.5084 33.224 27.9323C33.533 28.3563 33.9723 28.6867 34.4862 28.8819C35.0001 29.077 35.5656 29.1281 36.1112 29.0286C36.6568 28.9291 37.1579 28.6836 37.5512 28.323C37.9446 27.9625 38.2124 27.5031 38.321 27.003C38.4295 26.5029 38.3738 25.9845 38.1609 25.5134C37.948 25.0423 37.5876 24.6397 37.125 24.3564C36.6625 24.0731 36.1188 23.9219 35.5625 23.9219C34.8166 23.9219 34.1012 24.1935 33.5738 24.677C33.0463 25.1605 32.75 25.8162 32.75 26.5ZM36.5 26.5C36.5 26.67 36.445 26.8361 36.342 26.9774C36.239 27.1188 36.0926 27.2289 35.9213 27.294C35.75 27.359 35.5615 27.376 35.3796 27.3429C35.1977 27.3097 35.0307 27.2279 34.8996 27.1077C34.7685 26.9875 34.6792 26.8344 34.643 26.6677C34.6068 26.501 34.6254 26.3282 34.6964 26.1711C34.7673 26.0141 34.8875 25.8799 35.0417 25.7855C35.1958 25.691 35.3771 25.6406 35.5625 25.6406C35.8111 25.6406 36.0496 25.7312 36.2254 25.8923C36.4012 26.0535 36.5 26.2721 36.5 26.5Z" fill="#AFAFAF"/>
<path d="M46.8125 39.3906C46.8125 39.9005 46.9775 40.399 47.2865 40.823C47.5955 41.2469 48.0348 41.5774 48.5487 41.7725C49.0626 41.9676 49.6281 42.0187 50.1737 41.9192C50.7193 41.8197 51.2204 41.5742 51.6137 41.2136C52.0071 40.8531 52.2749 40.3937 52.3835 39.8936C52.492 39.3935 52.4363 38.8751 52.2234 38.404C52.0105 37.9329 51.6501 37.5303 51.1875 37.247C50.725 36.9637 50.1813 36.8125 49.625 36.8125C48.8791 36.8125 48.1637 37.0841 47.6363 37.5676C47.1088 38.0511 46.8125 38.7069 46.8125 39.3906ZM50.5625 39.3906C50.5625 39.5606 50.5075 39.7267 50.4045 39.8681C50.3015 40.0094 50.1551 40.1195 49.9838 40.1846C49.8125 40.2496 49.624 40.2667 49.4421 40.2335C49.2602 40.2003 49.0932 40.1185 48.9621 39.9983C48.831 39.8781 48.7417 39.725 48.7055 39.5583C48.6693 39.3916 48.6879 39.2188 48.7589 39.0618C48.8298 38.9047 48.95 38.7705 49.1042 38.6761C49.2583 38.5817 49.4396 38.5313 49.625 38.5313C49.8736 38.5313 50.1121 38.6218 50.2879 38.783C50.4637 38.9441 50.5625 39.1627 50.5625 39.3906Z" fill="#AFAFAF"/>
<path d="M18.6875 16.1875C18.6875 16.6974 18.8524 17.1959 19.1615 17.6198C19.4705 18.0438 19.9098 18.3742 20.4237 18.5694C20.9376 18.7645 21.5031 18.8156 22.0487 18.7161C22.5943 18.6166 23.0954 18.3711 23.4887 18.0105C23.8821 17.65 24.1499 17.1906 24.2585 16.6905C24.367 16.1904 24.3113 15.672 24.0984 15.2009C23.8855 14.7298 23.5251 14.3272 23.0625 14.0439C22.6 13.7606 22.0563 13.6094 21.5 13.6094C20.7541 13.6094 20.0387 13.881 19.5113 14.3645C18.9838 14.848 18.6875 15.5037 18.6875 16.1875ZM22.4375 16.1875C22.4375 16.3575 22.3825 16.5236 22.2795 16.6649C22.1765 16.8063 22.0301 16.9164 21.8588 16.9815C21.6875 17.0465 21.499 17.0635 21.3171 17.0304C21.1352 16.9972 20.9682 16.9154 20.8371 16.7952C20.706 16.675 20.6167 16.5219 20.5805 16.3552C20.5443 16.1885 20.5629 16.0157 20.6339 15.8586C20.7048 15.7016 20.825 15.5674 20.9792 15.473C21.1333 15.3785 21.3146 15.3281 21.5 15.3281C21.7486 15.3281 21.9871 15.4187 22.1629 15.5798C22.3387 15.741 22.4375 15.9596 22.4375 16.1875Z" fill="#AFAFAF"/>
<path d="M5.5625 39.3906C5.5625 39.9005 5.72745 40.399 6.03649 40.823C6.34553 41.2469 6.78478 41.5774 7.2987 41.7725C7.81262 41.9676 8.37812 42.0187 8.92369 41.9192C9.46926 41.8197 9.9704 41.5742 10.3637 41.2136C10.7571 40.8531 11.0249 40.3937 11.1335 39.8936C11.242 39.3935 11.1863 38.8751 10.9734 38.404C10.7605 37.9329 10.4001 37.5303 9.93754 37.247C9.47503 36.9637 8.93126 36.8125 8.375 36.8125C7.62908 36.8125 6.91371 37.0841 6.38626 37.5676C5.85882 38.0511 5.5625 38.7069 5.5625 39.3906ZM9.3125 39.3906C9.3125 39.5606 9.25751 39.7267 9.1545 39.8681C9.05149 40.0094 8.90507 40.1195 8.73376 40.1846C8.56246 40.2496 8.37396 40.2667 8.1921 40.2335C8.01024 40.2003 7.8432 40.1185 7.71209 39.9983C7.58097 39.8781 7.49169 39.725 7.45551 39.5583C7.41934 39.3916 7.4379 39.2188 7.50886 39.0618C7.57982 38.9047 7.69998 38.7705 7.85415 38.6761C8.00832 38.5817 8.18958 38.5313 8.375 38.5313C8.62364 38.5313 8.8621 38.6218 9.03791 38.783C9.21373 38.9441 9.3125 39.1627 9.3125 39.3906Z" fill="#AFAFAF"/>
<path d="M46.8125 31.3838C47.0611 31.3838 47.2996 31.2933 47.4754 31.1321C47.6512 30.971 47.75 30.7524 47.75 30.5245V2.4375H51.5V17.0469C51.5 17.2748 51.5988 17.4934 51.7746 17.6545C51.9504 17.8157 52.1889 17.9062 52.4375 17.9062C52.6861 17.9062 52.9246 17.8157 53.1004 17.6545C53.2762 17.4934 53.375 17.2748 53.375 17.0469V2.4375C53.375 1.98166 53.1775 1.54449 52.8258 1.22216C52.4742 0.899832 51.9973 0.71875 51.5 0.71875H47.75C47.2527 0.71875 46.7758 0.899832 46.4242 1.22216C46.0725 1.54449 45.875 1.98166 45.875 2.4375V30.5245C45.875 30.7524 45.9738 30.971 46.1496 31.1321C46.3254 31.2933 46.5639 31.3838 46.8125 31.3838Z" fill="#AFAFAF"/>
<path d="M57.125 39.3906C57.1227 38.8554 57.0529 38.3222 56.9169 37.8016C56.8597 37.5798 56.7087 37.3878 56.4971 37.268C56.2855 37.1481 56.0307 37.1103 55.7886 37.1627C55.5465 37.2151 55.3371 37.3535 55.2064 37.5475C55.0757 37.7415 55.0344 37.9751 55.0916 38.197C55.3621 39.2392 55.2718 40.3329 54.8331 41.3259C54.3944 42.319 53.6292 43.1621 52.6437 43.7382C51.6583 44.3142 50.5015 44.5946 49.3342 44.5402C48.1669 44.4859 47.0471 44.0997 46.1303 43.4351C45.2136 42.7706 44.5454 41.8607 44.2186 40.8321C43.8919 39.8034 43.9228 38.707 44.3071 37.6952C44.6915 36.6834 45.4101 35.8064 46.3631 35.1862C47.3161 34.566 48.4562 34.2333 49.625 34.2344C51.0614 34.2341 52.4429 34.7399 53.4838 35.6472C53.6644 35.8039 53.9055 35.8884 54.1541 35.8821C54.4027 35.8758 54.6384 35.7793 54.8094 35.6137C54.9803 35.4481 55.0725 35.227 55.0656 34.9992C55.0588 34.7713 54.9535 34.5552 54.7728 34.3985C54.3483 34.0337 53.8793 33.7151 53.375 33.4489V20.4844C53.375 20.2565 53.2762 20.0379 53.1004 19.8767C52.9246 19.7155 52.6861 19.625 52.4375 19.625C52.1889 19.625 51.9504 19.7155 51.7746 19.8767C51.5988 20.0379 51.5 20.2565 51.5 20.4844V32.7408C49.7452 32.3223 47.8844 32.5015 46.2628 33.2451C44.6412 33.9888 43.3688 35.2463 42.6819 36.7845C41.9949 38.3227 41.9399 40.0371 42.5271 41.6097C43.1143 43.1822 44.3038 44.5061 45.875 45.3358V50.5625C45.875 51.0183 46.0725 51.4555 46.4242 51.7778C46.7758 52.1002 47.2527 52.2812 47.75 52.2812H51.5C51.9973 52.2812 52.4742 52.1002 52.8258 51.7778C53.1775 51.4555 53.375 51.0183 53.375 50.5625V45.3358C54.5137 44.7331 55.4596 43.8666 56.1178 42.8232C56.776 41.7797 57.1233 40.596 57.125 39.3906ZM51.5 50.5625H47.75V46.0396C48.9784 46.341 50.2716 46.341 51.5 46.0396V50.5625Z" fill="#AFAFAF"/>
<path d="M43.0624 26.5C43.0602 25.9648 42.9903 25.4315 42.8543 24.911C42.826 24.8012 42.7744 24.6975 42.7023 24.6059C42.6303 24.5143 42.5393 24.4367 42.4345 24.3773C42.3298 24.318 42.2133 24.2782 42.0917 24.2601C41.9701 24.2421 41.8459 24.2461 41.726 24.2721C41.6062 24.298 41.4931 24.3454 41.3932 24.4114C41.2933 24.4774 41.2086 24.5608 41.1438 24.6569C41.0791 24.7529 41.0357 24.8597 41.016 24.9711C40.9963 25.0826 41.0007 25.1965 41.029 25.3063C41.2996 26.3486 41.2092 27.4423 40.7706 28.4353C40.3319 29.4284 39.5666 30.2715 38.5812 30.8475C37.5957 31.4236 36.4389 31.7039 35.2717 31.6496C34.1044 31.5953 32.9845 31.209 32.0678 30.5445C31.151 29.8799 30.4828 28.9701 30.1561 27.9415C29.8293 26.9128 29.8603 25.8164 30.2446 24.8046C30.6289 23.7927 31.3475 22.9158 32.3005 22.2956C33.2535 21.6754 34.3937 21.3427 35.5624 21.3438C36.9988 21.3434 38.3803 21.8493 39.4212 22.7566C39.6018 22.9133 39.843 22.9978 40.0916 22.9915C40.3402 22.9852 40.5759 22.8886 40.7468 22.723C40.9178 22.5575 41.0099 22.3364 41.0031 22.1085C40.9962 21.8806 40.8909 21.6646 40.7103 21.5079C40.2858 21.1431 39.8167 20.8244 39.3124 20.5583V2.4375C39.3124 1.98166 39.1149 1.54449 38.7633 1.22216C38.4116 0.899832 37.9347 0.71875 37.4374 0.71875H33.6874C33.1902 0.71875 32.7132 0.899832 32.3616 1.22216C32.01 1.54449 31.8124 1.98166 31.8124 2.4375V20.5548C30.2371 21.3822 29.0433 22.7061 28.4534 24.28C27.8634 25.854 27.9174 27.5709 28.6053 29.1111C29.2932 30.6513 30.5682 31.9099 32.1929 32.6527C33.8176 33.3955 35.6814 33.5719 37.4374 33.149V50.5625H33.6874V35.3662C33.6874 35.1383 33.5887 34.9197 33.4128 34.7585C33.237 34.5973 32.9986 34.5068 32.7499 34.5068C32.5013 34.5068 32.2628 34.5973 32.087 34.7585C31.9112 34.9197 31.8124 35.1383 31.8124 35.3662V50.5625C31.8124 51.0183 32.01 51.4555 32.3616 51.7778C32.7132 52.1002 33.1902 52.2812 33.6874 52.2812H37.4374C37.9347 52.2812 38.4116 52.1002 38.7633 51.7778C39.1149 51.4555 39.3124 51.0183 39.3124 50.5625V32.4452C40.4512 31.8425 41.3971 30.976 42.0552 29.9325C42.7134 28.8891 43.0608 27.7053 43.0624 26.5ZM33.6874 2.4375H37.4374V19.8502C36.209 19.5494 34.9159 19.5494 33.6874 19.8502V2.4375Z" fill="#AFAFAF"/>
<path d="M29 16.1875C28.9977 15.6523 28.9279 15.119 28.7919 14.5985C28.7347 14.3766 28.5837 14.1847 28.3721 14.0648C28.1605 13.945 27.9056 13.9071 27.6636 13.9596C27.4215 14.012 27.2121 14.1504 27.0814 14.3444C26.9507 14.5383 26.9093 14.7719 26.9665 14.9938C27.2371 16.0361 27.1468 17.1298 26.7081 18.1228C26.2694 19.1159 25.5042 19.959 24.5187 20.535C23.5332 21.1111 22.3765 21.3914 21.2092 21.3371C20.0419 21.2828 18.9221 20.8965 18.0053 20.232C17.0885 19.5674 16.4203 18.6576 16.0936 17.629C15.7669 16.6003 15.7978 15.5039 16.1821 14.4921C16.5664 13.4802 17.285 12.6033 18.238 11.9831C19.1911 11.3629 20.3312 11.0302 21.5 11.0312C22.9363 11.0309 24.3178 11.5368 25.3587 12.4441C25.4482 12.5217 25.5534 12.5823 25.6684 12.6226C25.7835 12.6629 25.906 12.6821 26.0291 12.679C26.1522 12.6759 26.2734 12.6506 26.3859 12.6045C26.4983 12.5584 26.5997 12.4925 26.6844 12.4105C26.769 12.3286 26.8352 12.2321 26.8792 12.1267C26.9231 12.0212 26.944 11.9089 26.9406 11.796C26.9372 11.6832 26.9096 11.5721 26.8594 11.469C26.8091 11.366 26.7372 11.273 26.6478 11.1954C26.2233 10.8306 25.7542 10.5119 25.25 10.2458V2.4375C25.25 1.98166 25.0524 1.54449 24.7008 1.22216C24.3492 0.899832 23.8723 0.71875 23.375 0.71875H19.625C19.1277 0.71875 18.6508 0.899832 18.2992 1.22216C17.9475 1.54449 17.75 1.98166 17.75 2.4375V7.32133C17.75 7.54925 17.8487 7.76783 18.0246 7.929C18.2004 8.09016 18.4388 8.1807 18.6875 8.1807C18.9361 8.1807 19.1746 8.09016 19.3504 7.929C19.5262 7.76783 19.625 7.54925 19.625 7.32133V2.4375H23.375V9.53766C21.6202 9.11918 19.7594 9.29838 18.1377 10.042C16.5161 10.7856 15.2438 12.0432 14.5568 13.5814C13.8699 15.1196 13.8149 16.834 14.4021 18.4065C14.9893 19.9791 16.1788 21.303 17.75 22.1327V50.5625C17.75 51.0183 17.9475 51.4555 18.2992 51.7778C18.6508 52.1002 19.1277 52.2812 19.625 52.2812H23.375C23.8723 52.2812 24.3492 52.1002 24.7008 51.7778C25.0524 51.4555 25.25 51.0183 25.25 50.5625V35.0938C25.25 34.8658 25.1512 34.6472 24.9754 34.4861C24.7996 34.3249 24.5611 34.2344 24.3125 34.2344C24.0638 34.2344 23.8254 34.3249 23.6496 34.4861C23.4737 34.6472 23.375 34.8658 23.375 35.0938V50.5625H19.625V22.8365C20.8534 23.1378 22.1466 23.1378 23.375 22.8365V31.6562C23.375 31.8842 23.4737 32.1028 23.6496 32.2639C23.8254 32.4251 24.0638 32.5156 24.3125 32.5156C24.5611 32.5156 24.7996 32.4251 24.9754 32.2639C25.1512 32.1028 25.25 31.8842 25.25 31.6562V22.1327C26.3887 21.53 27.3346 20.6635 27.9928 19.62C28.651 18.5766 28.9983 17.3928 29 16.1875Z" fill="#AFAFAF"/>
<path d="M14.5381 37.1631C14.2968 37.2156 14.088 37.3536 13.9575 37.5469C13.8269 37.7402 13.7853 37.973 13.8416 38.1944C14.1127 39.2366 14.023 40.3304 13.5848 41.3237C13.1465 42.317 12.3816 43.1605 11.3963 43.737C10.4111 44.3135 9.25434 44.5943 8.08694 44.5403C6.91955 44.4864 5.79947 44.1005 4.88239 43.4361C3.96531 42.7718 3.29678 41.8621 2.96972 40.8334C2.64265 39.8047 2.6733 38.7082 3.0574 37.6962C3.4415 36.6843 4.15997 35.8071 5.11296 35.1867C6.06595 34.5663 7.20611 34.2334 8.37499 34.2344C9.81134 34.2341 11.1929 34.7399 12.2337 35.6472C12.4144 35.8039 12.6555 35.8884 12.9041 35.8821C13.1527 35.8758 13.3884 35.7793 13.5594 35.6137C13.7303 35.4481 13.8225 35.227 13.8156 34.9992C13.8088 34.7713 13.7034 34.5552 13.5228 34.3985C13.0983 34.0337 12.6293 33.7151 12.125 33.4489V2.4375C12.125 1.98166 11.9274 1.54449 11.5758 1.22216C11.2242 0.899832 10.7473 0.71875 10.25 0.71875H6.49999C6.00271 0.71875 5.5258 0.899832 5.17416 1.22216C4.82253 1.54449 4.62499 1.98166 4.62499 2.4375V33.4455C3.04965 34.2728 1.85591 35.5967 1.26594 37.1707C0.675967 38.7446 0.729962 40.4615 1.41787 42.0017C2.10578 43.5419 3.38074 44.8005 5.00547 45.5433C6.63019 46.2861 8.49399 46.4625 10.25 46.0396V50.5625H6.49999V48.2568C6.49999 48.0289 6.40122 47.8103 6.2254 47.6491C6.04959 47.488 5.81113 47.3974 5.56249 47.3974C5.31385 47.3974 5.07539 47.488 4.89958 47.6491C4.72376 47.8103 4.62499 48.0289 4.62499 48.2568V50.5625C4.62499 51.0183 4.82253 51.4555 5.17416 51.7778C5.5258 52.1002 6.00271 52.2812 6.49999 52.2812H10.25C10.7473 52.2812 11.2242 52.1002 11.5758 51.7778C11.9274 51.4555 12.125 51.0183 12.125 50.5625V45.3358C13.5253 44.6005 14.6276 43.4686 15.2663 42.11C15.9049 40.7515 16.0455 39.2397 15.6669 37.8016C15.6385 37.6918 15.5869 37.5881 15.5148 37.4965C15.4427 37.4049 15.3517 37.3273 15.2468 37.268C15.142 37.2087 15.0255 37.1689 14.9039 37.1509C14.7823 37.1329 14.658 37.1371 14.5381 37.1631ZM6.49999 2.4375H10.25V32.7408C9.02152 32.44 7.72846 32.44 6.49999 32.7408V2.4375Z" fill="#AFAFAF"/>
</svg>
