<svg width="44" height="44" viewBox="0 0 44 44" fill="none" xmlns="http://www.w3.org/2000/svg">
<path d="M22 0C9.86941 0 0 9.86941 0 22C0 34.1305 9.86941 43.9999 22 43.9999C34.1305 43.9999 43.9999 34.1305 43.9999 22C43.9999 9.86941 34.1306 0 22 0ZM22 42.0869C10.9234 42.0869 1.91301 33.0765 1.91301 22C1.91301 10.9234 10.9234 1.91301 22 1.91301C33.0765 1.91301 42.0869 10.9234 42.0869 22C42.0869 33.0765 33.0765 42.0869 22 42.0869Z" fill="#AFAFAF"/>
<path d="M22 9.56524C18.3078 9.56524 15.3043 12.5687 15.3043 16.2609V18.1739C15.3043 18.7019 15.7328 19.1305 16.2608 19.1305C16.7888 19.1305 17.2174 18.7019 17.2174 18.1739V16.2609C17.2174 13.6247 19.3619 11.4783 22 11.4783C24.6381 11.4783 26.7825 13.6247 26.7825 16.2608V17.709C26.7825 18.9869 26.2851 20.1883 25.3803 21.0932L23.0043 23.4692C21.7398 24.7356 21.0434 26.4152 21.0434 28.204V29.6521C21.0434 30.1801 21.472 30.6087 22 30.6087C22.528 30.6087 22.9565 30.1802 22.9565 29.6522V28.204C22.9565 26.9261 23.4539 25.7247 24.3587 24.8198L26.7347 22.4438C27.9993 21.1774 28.6956 19.4977 28.6956 17.7091V16.2609C28.6956 12.5687 25.6922 9.56524 22 9.56524Z" fill="#AFAFAF"/>
<path d="M22 32.5217C20.944 32.5217 20.0869 33.3806 20.0869 34.4348C20.0869 35.4889 20.944 36.3478 22 36.3478C23.056 36.3478 23.913 35.4888 23.913 34.4348C23.9131 33.3806 23.056 32.5217 22 32.5217Z" fill="#AFAFAF"/>
</svg>
