<svg width="56" height="56" viewBox="0 0 56 56" fill="none" xmlns="http://www.w3.org/2000/svg">
<path d="M50.75 49.875C50.75 49.7601 50.7274 49.6463 50.6835 49.5401C50.6395 49.4339 50.575 49.3375 50.4938 49.2562C50.4125 49.175 50.3161 49.1105 50.2099 49.0665C50.1037 49.0226 49.9899 49 49.875 49H45.5C45.3851 49 45.2713 49.0226 45.1651 49.0665C45.0589 49.1105 44.9625 49.175 44.8812 49.2562C44.8 49.3375 44.7355 49.4339 44.6915 49.5401C44.6476 49.6463 44.625 49.7601 44.625 49.875V52.5H42.875V42C42.875 41.8851 42.8524 41.7713 42.8085 41.6651C42.7645 41.5589 42.7 41.4625 42.6188 41.3812C42.5375 41.3 42.4411 41.2355 42.3349 41.1915C42.2287 41.1476 42.1149 41.125 42 41.125H37.625C37.5101 41.125 37.3963 41.1476 37.2901 41.1915C37.1839 41.2355 37.0875 41.3 37.0062 41.3812C36.925 41.4625 36.8605 41.5589 36.8165 41.6651C36.7726 41.7713 36.75 41.8851 36.75 42V52.5H35V42C35 41.8851 34.9774 41.7713 34.9335 41.6651C34.8895 41.5589 34.825 41.4625 34.7438 41.3812C34.6625 41.3 34.5661 41.2355 34.4599 41.1915C34.3537 41.1476 34.2399 41.125 34.125 41.125H29.75C29.6351 41.125 29.5213 41.1476 29.4151 41.1915C29.3089 41.2355 29.2125 41.3 29.1312 41.3812C29.05 41.4625 28.9855 41.5589 28.9415 41.6651C28.8976 41.7713 28.875 41.8851 28.875 42V52.5H27.125V46.375C27.125 46.2601 27.1024 46.1463 27.0585 46.0401C27.0145 45.9339 26.95 45.8375 26.8688 45.7562C26.7875 45.675 26.6911 45.6105 26.5849 45.5665C26.4787 45.5226 26.3649 45.5 26.25 45.5H21.875C21.7601 45.5 21.6463 45.5226 21.5401 45.5665C21.4339 45.6105 21.3375 45.675 21.2562 45.7562C21.175 45.8375 21.1105 45.9339 21.0665 46.0401C21.0226 46.1463 21 46.2601 21 46.375V52.5H19.25V38.5C19.25 38.3851 19.2274 38.2713 19.1835 38.1651C19.1395 38.0589 19.075 37.9625 18.9938 37.8812C18.9125 37.8 18.8161 37.7355 18.7099 37.6915C18.6037 37.6476 18.4899 37.625 18.375 37.625H14C13.8851 37.625 13.7713 37.6476 13.6651 37.6915C13.5589 37.7355 13.4625 37.8 13.3812 37.8812C13.3 37.9625 13.2355 38.0589 13.1915 38.1651C13.1476 38.2713 13.125 38.3851 13.125 38.5V52.5H11.375V28C11.375 27.8851 11.3524 27.7713 11.3085 27.6651C11.2645 27.5589 11.2 27.4625 11.1188 27.3812C11.0375 27.3 10.9411 27.2355 10.8349 27.1915C10.7287 27.1476 10.6149 27.125 10.5 27.125H6.125C6.01008 27.125 5.89629 27.1476 5.79012 27.1915C5.68394 27.2355 5.58747 27.3 5.50621 27.3812C5.42496 27.4625 5.36051 27.5589 5.31654 27.6651C5.27258 27.7713 5.24997 27.8851 5.25 28V52.5H3.5V54.25H54.25V52.5H50.75V49.875ZM7 52.5V28.875H9.625V52.5H7ZM14.875 52.5V39.375H17.5V52.5H14.875ZM22.75 52.5V47.25H25.375V52.5H22.75ZM30.625 52.5V42.875H33.25V52.5H30.625ZM38.5 52.5V42.875H41.125V52.5H38.5ZM46.375 52.5V50.75H49V52.5H46.375Z" fill="#AFAFAF"/>
<path d="M53.375 37.6249H49.875C49.6429 37.625 49.4204 37.7172 49.2563 37.8812C49.0922 38.0453 49 38.2679 49 38.4999V39.0125L32.9938 23.0062C32.8296 22.8422 32.6071 22.75 32.375 22.75C32.1429 22.75 31.9204 22.8422 31.7562 23.0062L24.5 30.2625L9.36876 15.1312C9.20462 14.9672 8.98205 14.875 8.75 14.875C8.51794 14.875 8.29538 14.9672 8.13124 15.1312L2.00624 21.2562C1.84215 21.4203 1.74997 21.6429 1.74997 21.8749C1.74997 22.107 1.84215 22.3296 2.00624 22.4937L4.63124 25.1187C4.79538 25.2827 5.01794 25.3749 5.25 25.3749C5.48205 25.3749 5.70462 25.2827 5.86876 25.1187L8.75 22.2374L23.8812 37.3687C24.0454 37.5327 24.2679 37.6249 24.5 37.6249C24.7321 37.6249 24.9546 37.5327 25.1188 37.3687L32.375 30.1124L45.1376 42.8749H44.625C44.3929 42.875 44.1704 42.9672 44.0063 43.1312C43.8422 43.2953 43.75 43.5179 43.75 43.7499V47.2499C43.75 47.482 43.8422 47.7046 44.0063 47.8687C44.1704 48.0327 44.3929 48.1249 44.625 48.1249H53.375C53.6071 48.1249 53.8296 48.0327 53.9937 47.8687C54.1578 47.7046 54.25 47.482 54.25 47.2499V38.4999C54.25 38.2679 54.1578 38.0453 53.9937 37.8812C53.8296 37.7172 53.6071 37.625 53.375 37.6249ZM52.5 46.3749H45.5V44.6249H47.25C47.4231 44.6249 47.5922 44.5736 47.7361 44.4774C47.88 44.3813 47.9921 44.2446 48.0584 44.0848C48.1246 43.9249 48.1419 43.749 48.1082 43.5792C48.0744 43.4095 47.9911 43.2536 47.8688 43.1312L32.9938 28.2562C32.8296 28.0922 32.6071 28 32.375 28C32.1429 28 31.9204 28.0922 31.7562 28.2562L24.5 35.5125L9.36876 20.3812C9.20462 20.2172 8.98205 20.125 8.75 20.125C8.51794 20.125 8.29538 20.2172 8.13124 20.3812L5.25 23.2625L3.86241 21.8749L8.75 16.9874L23.8812 32.1187C24.0454 32.2827 24.2679 32.3749 24.5 32.3749C24.7321 32.3749 24.9546 32.2827 25.1188 32.1187L32.375 24.8624L49.2562 41.7437C49.3786 41.8661 49.5345 41.9494 49.7043 41.9831C49.874 42.0169 50.0499 41.9995 50.2098 41.9333C50.3697 41.8671 50.5063 41.7549 50.6025 41.6111C50.6987 41.4672 50.75 41.298 50.75 41.1249V39.3749H52.5V46.3749Z" fill="#AFAFAF"/>
<path d="M21.4938 21.8749H39.7659C40.2316 21.8749 40.6888 21.7511 41.0908 21.516C41.4928 21.281 41.825 20.9433 42.0534 20.5375C42.2818 20.1317 42.3982 19.6725 42.3905 19.2069C42.3829 18.7413 42.2515 18.2861 42.0099 17.8881L32.901 2.87879C32.6688 2.49241 32.3402 2.1729 31.9475 1.9515C31.5548 1.73009 31.1114 1.61437 30.6606 1.61563H30.6569C30.2067 1.61383 29.7637 1.72868 29.3711 1.949C28.9784 2.16932 28.6496 2.48759 28.4165 2.8728L19.2533 17.8821C19.0104 18.28 18.8778 18.7355 18.8692 19.2016C18.8607 19.6678 18.9764 20.1278 19.2045 20.5344C19.4327 20.941 19.765 21.2795 20.1674 21.5151C20.5697 21.7507 21.0275 21.8749 21.4938 21.8749ZM20.7469 18.794L29.9102 3.78476V3.78465C29.9874 3.65577 30.0969 3.5493 30.2279 3.4758C30.359 3.4023 30.5069 3.36432 30.6571 3.36563H30.6582C30.8086 3.36457 30.9567 3.40288 31.0877 3.47674C31.2187 3.5506 31.3281 3.65745 31.405 3.78668L40.5139 18.7961C40.5944 18.9287 40.6382 19.0805 40.6408 19.2356C40.6433 19.3908 40.6045 19.5439 40.5284 19.6791C40.4523 19.8144 40.3415 19.927 40.2075 20.0053C40.0735 20.0836 39.9211 20.1249 39.7659 20.1249H21.4938C21.3384 20.1249 21.1857 20.0835 21.0516 20.005C20.9175 19.9265 20.8067 19.8137 20.7307 19.6781C20.6546 19.5426 20.616 19.3893 20.6189 19.2339C20.6218 19.0785 20.666 18.9267 20.7469 18.794Z" fill="#AFAFAF"/>
<path d="M28.8838 14.9988C28.9136 15.2073 29.0176 15.398 29.1767 15.536C29.3358 15.674 29.5394 15.75 29.75 15.75H31.5C31.7106 15.75 31.9142 15.674 32.0733 15.536C32.2324 15.398 32.3364 15.2073 32.3662 14.9988L33.2412 8.87379C33.259 8.74968 33.2498 8.62322 33.2144 8.50295C33.179 8.38269 33.1182 8.27143 33.036 8.17672C32.9539 8.08201 32.8524 8.00606 32.7383 7.954C32.6243 7.90194 32.5004 7.875 32.375 7.875H28.875C28.7496 7.875 28.6257 7.90194 28.5117 7.954C28.3976 8.00606 28.2961 8.08201 28.214 8.17672C28.1318 8.27143 28.071 8.38269 28.0356 8.50295C28.0002 8.62322 27.991 8.74968 28.0088 8.87379L28.8838 14.9988ZM31.3662 9.625L30.7411 14H30.5089L29.8838 9.625H31.3662Z" fill="#AFAFAF"/>
<path d="M30.625 18.375C31.1082 18.375 31.5 17.9833 31.5 17.5C31.5 17.0168 31.1082 16.625 30.625 16.625C30.1418 16.625 29.75 17.0168 29.75 17.5C29.75 17.9833 30.1418 18.375 30.625 18.375Z" fill="#AFAFAF"/>
</svg>
