<svg width="60" height="53" viewBox="0 0 60 53" fill="none" xmlns="http://www.w3.org/2000/svg">
<path d="M58.2976 51.4224H53.2736V49.3106C53.2736 49.1654 53.1358 49.0476 52.966 49.0476C52.7962 49.0476 52.6584 49.1654 52.6584 49.3106V51.4224H47.122V49.3106C47.122 49.1654 46.9842 49.0476 46.8144 49.0476C46.6446 49.0476 46.5068 49.1654 46.5068 49.3106V51.4224H40.9704V49.3106C40.9704 49.1654 40.8326 49.0476 40.6628 49.0476C40.4931 49.0476 40.3553 49.1654 40.3553 49.3106V51.4224H34.8188V49.3106C34.8188 49.1654 34.681 49.0476 34.5112 49.0476C34.3415 49.0476 34.2037 49.1654 34.2037 49.3106V51.4224H28.6672V49.3106C28.6672 49.1654 28.5294 49.0476 28.3597 49.0476C28.1899 49.0476 28.0521 49.1654 28.0521 49.3106V51.4224H22.5157V49.3106C22.5157 49.1654 22.3779 49.0476 22.2081 49.0476C22.0383 49.0476 21.9005 49.1654 21.9005 49.3106V51.4224H16.3641V49.3106C16.3641 49.1654 16.2263 49.0476 16.0565 49.0476C15.8867 49.0476 15.7489 49.1654 15.7489 49.3106V51.4224H10.2125V49.3106C10.2125 49.1654 10.0747 49.0476 9.9049 49.0476C9.73512 49.0476 9.59732 49.1654 9.59732 49.3106V51.4224H2.62573V41.8696H5.5994C5.76857 41.8696 5.90698 41.7513 5.90698 41.6067C5.90698 41.4621 5.76857 41.3438 5.5994 41.3438H2.62573V36.611H5.5994C5.76857 36.611 5.90698 36.4927 5.90698 36.3481C5.90698 36.2035 5.76857 36.0851 5.5994 36.0851H2.62573V31.3524H5.5994C5.76857 31.3524 5.90698 31.2341 5.90698 31.0895C5.90698 30.9448 5.76857 30.8265 5.5994 30.8265H2.62573V26.0938H5.5994C5.76857 26.0938 5.90698 25.976 5.90698 25.8308C5.90698 25.6857 5.76857 25.5679 5.5994 25.5679H2.62573V20.8352H5.5994C5.76857 20.8352 5.90698 20.7174 5.90698 20.5722C5.90698 20.4271 5.76857 20.3093 5.5994 20.3093H2.62573V15.5765H5.5994C5.76857 15.5765 5.90698 15.4587 5.90698 15.3136C5.90698 15.1685 5.76857 15.0507 5.5994 15.0507H2.62573V10.3179H5.5994C5.76857 10.3179 5.90698 10.2001 5.90698 10.055C5.90698 9.90986 5.76857 9.79207 5.5994 9.79207H2.62573V5.05931H5.5994C5.76857 5.05931 5.90698 4.94152 5.90698 4.79638C5.90698 4.65124 5.76857 4.53345 5.5994 4.53345H2.62573V0.788792C2.62573 0.353379 2.21234 0 1.70299 0C1.19364 0 0.780251 0.353379 0.780251 0.788792V52.2112C0.780251 52.6466 1.19364 53 1.70299 53H58.2976C58.8069 53 59.2203 52.6466 59.2203 52.2112C59.2203 51.7758 58.8069 51.4224 58.2976 51.4224Z" fill="#A3A3A3"/>
<path d="M24.1083 28.2103L25.6566 29.1238L26.0128 28.6941L23.9982 27.5083L22.7752 28.7462L23.2212 29.1101L24.1083 28.2103Z" fill="#A3A3A3"/>
<path d="M13.3252 27.5382L14.0037 28.3738L14.4393 27.9878L13.4562 26.7778L8.27844 30.2822L8.66107 30.695L13.3252 27.5382Z" fill="#A3A3A3"/>
<path d="M39.5851 23.3725L41.2251 25.5853L41.6083 25.1199L39.6896 22.53L35.2445 26.4109L35.8246 26.6549L39.5851 23.3725Z" fill="#A3A3A3"/>
<path d="M54.8865 26.6958L55.1461 26.2183L49.2289 23.8704L43.6076 27.8169L42.3213 26.0821L41.9368 26.5475L43.4593 28.6021L49.3206 24.4861L54.8865 26.6958Z" fill="#A3A3A3"/>
<path d="M22.4264 29.9157L21.9798 29.5518L18.5405 33.0367L15.1546 28.8677L14.7197 29.2552L18.4931 33.9007L22.4264 29.9157Z" fill="#A3A3A3"/>
<path d="M34.3384 27.2012L29.9622 31.0231L27.0254 29.292L26.6692 29.7206L30.0391 31.7067L34.9197 27.4452L34.3384 27.2012Z" fill="#A3A3A3"/>
<path d="M10.2586 32.7716L18.0435 25.8618L24.8459 31.4118L30.1295 25.0367L39.5106 28.9807L44.3649 23.0916L51.2466 21.5566L57.3158 23.1131L57.4924 22.6094L51.2589 21.0107L43.9915 22.6314L39.3101 28.3108L29.9302 24.3668L24.7561 30.6119L18.025 25.1193L9.8157 32.4072L10.2586 32.7716Z" fill="#A3A3A3"/>
<path d="M10.1627 33.6604L9.91167 34.1411L13.5214 35.5199L15.9033 34.1863L21.3253 35.5052L26.724 32.8659L35.1018 34.2021L37.0783 30.4053L42.0088 34.3167L45.5564 29.1307H48.4015L50.3134 31.0085L57.5176 28.5601L57.2906 28.071L50.4925 30.3817L48.6814 28.6048H45.2027L41.8655 33.4848L36.8661 29.5203L34.7376 33.6089L26.6151 32.3137L21.246 34.9378L15.8012 33.6152L13.4654 34.923L10.1627 33.6604Z" fill="#A3A3A3"/>
</svg>
