<svg width="60" height="60" viewBox="0 0 60 60" fill="none" xmlns="http://www.w3.org/2000/svg">
<path d="M30.5303 0.469669C30.2374 0.176777 29.7626 0.176777 29.4697 0.469669L24.6967 5.24264C24.4038 5.53553 24.4038 6.01041 24.6967 6.3033C24.9896 6.5962 25.4645 6.5962 25.7574 6.3033L30 2.06066L34.2426 6.3033C34.5355 6.5962 35.0104 6.5962 35.3033 6.3033C35.5962 6.01041 35.5962 5.53553 35.3033 5.24264L30.5303 0.469669ZM30.75 57L30.75 1L29.25 1L29.25 57L30.75 57Z" fill="#AFAFAF"/>
<path d="M58.5303 33.5303C58.8232 33.2374 58.8232 32.7626 58.5303 32.4697L53.7574 27.6967C53.4645 27.4038 52.9896 27.4038 52.6967 27.6967C52.4038 27.9896 52.4038 28.4645 52.6967 28.7574L56.9393 33L52.6967 37.2426C52.4038 37.5355 52.4038 38.0104 52.6967 38.3033C52.9896 38.5962 53.4645 38.5962 53.7574 38.3033L58.5303 33.5303ZM2 33.75H58V32.25H2V33.75Z" fill="#AFAFAF"/>
<path d="M9 42.5C23 41.4098 19 15.2451 30 15.2451C41 15.2451 37 42.5 51 42.5" stroke="#AFAFAF" stroke-width="1.5"/>
</svg>
