<svg width="52" height="47" viewBox="0 0 52 47" fill="none" xmlns="http://www.w3.org/2000/svg">
<rect x="1.33334" y="10.8667" width="49.3333" height="34.2667" stroke="#AFAFAF" stroke-width="2"/>
<line x1="19.0653" y1="19.9333" x2="42.3333" y2="19.9334" stroke="#AFAFAF" stroke-width="2"/>
<line x1="8.5" y1="19.9333" x2="13.7008" y2="19.9333" stroke="#AFAFAF" stroke-width="2"/>
<line x1="8.5" y1="29" x2="31.2964" y2="29" stroke="#AFAFAF" stroke-width="2"/>
<line x1="36.7324" y1="29" x2="42.3333" y2="29" stroke="#AFAFAF" stroke-width="2"/>
<line x1="19.4945" y1="38.0667" x2="42.3333" y2="38.0667" stroke="#AFAFAF" stroke-width="2"/>
<line x1="8.5" y1="38.0667" x2="13.7008" y2="38.0667" stroke="#AFAFAF" stroke-width="2"/>
<path d="M19.1667 19.5061C19.1667 21.1174 17.8137 22.4728 16.0833 22.4728C14.3529 22.4728 13 21.1174 13 19.5061C13 17.8948 14.3529 16.5394 16.0833 16.5394C17.8137 16.5394 19.1667 17.8948 19.1667 19.5061Z" stroke="#AFAFAF" stroke-width="2"/>
<path d="M36.6667 28.5727C36.6667 30.1841 35.3137 31.5394 33.5833 31.5394C31.8529 31.5394 30.5 30.1841 30.5 28.5727C30.5 26.9614 31.8529 25.6061 33.5833 25.6061C35.3137 25.6061 36.6667 26.9614 36.6667 28.5727Z" stroke="#AFAFAF" stroke-width="2"/>
<path d="M19.1667 37.6394C19.1667 39.2507 17.8137 40.6061 16.0833 40.6061C14.3529 40.6061 13 39.2507 13 37.6394C13 36.0281 14.3529 34.6727 16.0833 34.6727C17.8137 34.6727 19.1667 36.0281 19.1667 37.6394Z" stroke="#AFAFAF" stroke-width="2"/>
<path d="M18.3333 1.93335H33.6667C35.3235 1.93335 36.6667 3.2765 36.6667 4.93335V10.1334H15.3333V4.93335C15.3333 3.27649 16.6765 1.93335 18.3333 1.93335Z" stroke="#AFAFAF" stroke-width="2"/>
</svg>
