<svg width="209" height="70" viewBox="0 0 209 70" fill="none" xmlns="http://www.w3.org/2000/svg">
<path d="M35.4154 43L27.9794 32.308L20.6754 43H12.4914L23.8874 27.336L13.0634 12.2H21.1594L28.2434 22.188L35.1954 12.2H42.8954L32.1594 27.072L43.6434 43H35.4154Z" fill="#24F124"/>
<path d="M80.1135 45.816C79.1162 46.9893 77.9575 47.884 76.6375 48.5C75.3175 49.116 73.8949 49.424 72.3695 49.424C70.4335 49.424 68.6149 48.9547 66.9135 48.016C65.2415 47.1067 63.3202 45.5373 61.1495 43.308C58.2455 43.1613 55.6202 42.384 53.2735 40.976C50.9562 39.568 49.1375 37.7053 47.8175 35.388C46.5269 33.0413 45.8815 30.4453 45.8815 27.6C45.8815 24.6373 46.5855 21.9533 47.9935 19.548C49.4309 17.1427 51.3962 15.2653 53.8895 13.916C56.3829 12.5373 59.1842 11.848 62.2935 11.848C65.3735 11.848 68.1602 12.5373 70.6535 13.916C73.1469 15.2653 75.0975 17.1427 76.5055 19.548C77.9135 21.924 78.6175 24.608 78.6175 27.6C78.6175 30.1227 78.1042 32.44 77.0775 34.552C76.0802 36.664 74.6575 38.4387 72.8095 39.876C70.9909 41.3133 68.8935 42.3107 66.5175 42.868C67.5442 43.9533 68.5269 44.7307 69.4655 45.2C70.4335 45.6987 71.4162 45.948 72.4135 45.948C74.5842 45.948 76.4615 45.068 78.0455 43.308L80.1135 45.816ZM50.2815 27.6C50.2815 29.8293 50.7949 31.8533 51.8215 33.672C52.8775 35.4613 54.3149 36.8693 56.1335 37.896C57.9815 38.9227 60.0349 39.436 62.2935 39.436C64.5229 39.436 66.5469 38.9227 68.3655 37.896C70.1842 36.8693 71.6069 35.4613 72.6335 33.672C73.6895 31.8533 74.2175 29.8293 74.2175 27.6C74.2175 25.3707 73.6895 23.3613 72.6335 21.572C71.6069 19.7533 70.1842 18.3307 68.3655 17.304C66.5469 16.2773 64.5229 15.764 62.2935 15.764C60.0349 15.764 57.9815 16.2773 56.1335 17.304C54.3149 18.3307 52.8775 19.7533 51.8215 21.572C50.7949 23.3613 50.2815 25.3707 50.2815 27.6ZM98.1027 43.352C93.996 43.352 90.7987 42.1787 88.5107 39.832C86.2227 37.4853 85.0787 34.112 85.0787 29.712V12.2H89.4787V29.536C89.4787 36.136 92.368 39.436 98.1467 39.436C100.963 39.436 103.119 38.6293 104.615 37.016C106.111 35.3733 106.859 32.88 106.859 29.536V12.2H111.127V29.712C111.127 34.1413 109.983 37.5293 107.695 39.876C105.407 42.1933 102.209 43.352 98.1027 43.352ZM139.127 35.3H122.759L119.371 43H114.839L128.787 12.2H133.143L147.135 43H142.515L139.127 35.3ZM137.587 31.78L130.943 16.688L124.299 31.78H137.587ZM178.217 12.2V43H174.609L156.129 20.032V43H151.729V12.2H155.337L173.817 35.168V12.2H178.217ZM193.552 16.028H182.992V12.2H208.468V16.028H197.908V43H193.552V16.028Z" fill="black"/>
<path d="M7.7131 62.281C8.24176 62.4283 8.65776 62.697 8.9611 63.087C9.26443 63.4683 9.4161 63.9537 9.4161 64.543C9.4161 65.3317 9.1171 65.9383 8.5191 66.363C7.92976 66.7877 7.06743 67 5.9321 67H1.5901V57.9H5.6721C6.7121 57.9 7.51376 58.108 8.0771 58.524C8.6491 58.94 8.9351 59.5163 8.9351 60.253C8.9351 60.7297 8.82243 61.1413 8.5971 61.488C8.38043 61.8347 8.08576 62.099 7.7131 62.281ZM2.8901 58.953V61.865H5.5551C6.22243 61.865 6.73376 61.7437 7.0891 61.501C7.4531 61.2497 7.6351 60.8857 7.6351 60.409C7.6351 59.9323 7.4531 59.5727 7.0891 59.33C6.73376 59.0787 6.22243 58.953 5.5551 58.953H2.8901ZM5.8801 65.947C6.61676 65.947 7.17143 65.8257 7.5441 65.583C7.91676 65.3403 8.1031 64.959 8.1031 64.439C8.1031 63.425 7.3621 62.918 5.8801 62.918H2.8901V65.947H5.8801ZM15.199 67.104C13.9856 67.104 13.041 66.7573 12.365 66.064C11.689 65.3707 11.351 64.374 11.351 63.074V57.9H12.651V63.022C12.651 64.972 13.5046 65.947 15.212 65.947C16.044 65.947 16.681 65.7087 17.123 65.232C17.565 64.7467 17.786 64.01 17.786 63.022V57.9H19.047V63.074C19.047 64.3827 18.709 65.3837 18.033 66.077C17.357 66.7617 16.4123 67.104 15.199 67.104ZM21.7122 57.9H23.0122V67H21.7122V57.9ZM25.7366 57.9H27.0366V65.869H31.9636V67H25.7366V57.9ZM33.4553 57.9H37.2903C38.2523 57.9 39.106 58.0907 39.8513 58.472C40.5967 58.8533 41.173 59.3907 41.5803 60.084C41.9963 60.7687 42.2043 61.5573 42.2043 62.45C42.2043 63.3427 41.9963 64.1357 41.5803 64.829C41.173 65.5137 40.5967 66.0467 39.8513 66.428C39.106 66.8093 38.2523 67 37.2903 67H33.4553V57.9ZM37.2123 65.869C37.949 65.869 38.5947 65.726 39.1493 65.44C39.7127 65.154 40.146 64.7553 40.4493 64.244C40.7527 63.724 40.9043 63.126 40.9043 62.45C40.9043 61.774 40.7527 61.1803 40.4493 60.669C40.146 60.149 39.7127 59.746 39.1493 59.46C38.5947 59.174 37.949 59.031 37.2123 59.031H34.7553V65.869H37.2123ZM49.4938 59.031H46.3738V57.9H53.9008V59.031H50.7808V67H49.4938V59.031ZM61.9207 65.869V67H55.3167V57.9H61.7387V59.031H56.6167V61.826H61.1797V62.931H56.6167V65.869H61.9207ZM66.6776 67.104C65.993 67.104 65.33 67 64.6886 66.792C64.056 66.5753 63.5576 66.298 63.1936 65.96L63.6746 64.946C64.0213 65.258 64.4633 65.5137 65.0006 65.713C65.5466 65.9037 66.1056 65.999 66.6776 65.999C67.4316 65.999 67.995 65.8733 68.3676 65.622C68.7403 65.362 68.9266 65.0197 68.9266 64.595C68.9266 64.283 68.8226 64.0317 68.6146 63.841C68.4153 63.6417 68.164 63.49 67.8606 63.386C67.566 63.282 67.1456 63.165 66.5996 63.035C65.915 62.8703 65.3603 62.7057 64.9356 62.541C64.5196 62.3763 64.16 62.125 63.8566 61.787C63.562 61.4403 63.4146 60.9767 63.4146 60.396C63.4146 59.9107 63.5403 59.473 63.7916 59.083C64.0516 58.693 64.4416 58.381 64.9616 58.147C65.4816 57.913 66.1273 57.796 66.8986 57.796C67.436 57.796 67.9646 57.8653 68.4846 58.004C69.0046 58.1427 69.451 58.342 69.8236 58.602L69.3946 59.642C69.0133 59.3993 68.606 59.2173 68.1726 59.096C67.7393 58.966 67.3146 58.901 66.8986 58.901C66.162 58.901 65.6073 59.0353 65.2346 59.304C64.8706 59.5727 64.6886 59.9193 64.6886 60.344C64.6886 60.656 64.7926 60.9117 65.0006 61.111C65.2086 61.3017 65.4643 61.4533 65.7676 61.566C66.0796 61.67 66.5 61.7827 67.0286 61.904C67.7133 62.0687 68.2636 62.2333 68.6796 62.398C69.0956 62.5627 69.451 62.814 69.7456 63.152C70.049 63.49 70.2006 63.945 70.2006 64.517C70.2006 64.9937 70.0706 65.4313 69.8106 65.83C69.5506 66.22 69.1563 66.532 68.6276 66.766C68.099 66.9913 67.449 67.104 66.6776 67.104ZM73.7799 59.031H70.6599V57.9H78.1869V59.031H75.0669V67H73.7799V59.031ZM84.901 59.031H81.781V57.9H89.308V59.031H86.188V67H84.901V59.031ZM96.8079 67L94.8449 64.205C94.6022 64.2223 94.4116 64.231 94.2729 64.231H92.0239V67H90.7239V57.9H94.2729C95.4516 57.9 96.3789 58.1817 97.0549 58.745C97.7309 59.3083 98.0689 60.084 98.0689 61.072C98.0689 61.774 97.8956 62.372 97.5489 62.866C97.2022 63.36 96.7082 63.7197 96.0669 63.945L98.2249 67H96.8079ZM94.2339 63.126C95.0572 63.126 95.6856 62.9483 96.1189 62.593C96.5522 62.2377 96.7689 61.7307 96.7689 61.072C96.7689 60.4133 96.5522 59.9107 96.1189 59.564C95.6856 59.2087 95.0572 59.031 94.2339 59.031H92.0239V63.126H94.2339ZM105.967 64.725H101.131L100.13 67H98.7912L102.912 57.9H104.199L108.333 67H106.968L105.967 64.725ZM105.512 63.685L103.549 59.226L101.586 63.685H105.512ZM109.691 57.9H113.526C114.488 57.9 115.341 58.0907 116.087 58.472C116.832 58.8533 117.408 59.3907 117.816 60.084C118.232 60.7687 118.44 61.5573 118.44 62.45C118.44 63.3427 118.232 64.1357 117.816 64.829C117.408 65.5137 116.832 66.0467 116.087 66.428C115.341 66.8093 114.488 67 113.526 67H109.691V57.9ZM113.448 65.869C114.184 65.869 114.83 65.726 115.385 65.44C115.948 65.154 116.381 64.7553 116.685 64.244C116.988 63.724 117.14 63.126 117.14 62.45C117.14 61.774 116.988 61.1803 116.685 60.669C116.381 60.149 115.948 59.746 115.385 59.46C114.83 59.174 114.184 59.031 113.448 59.031H110.991V65.869H113.448ZM127.035 65.869V67H120.431V57.9H126.853V59.031H121.731V61.826H126.294V62.931H121.731V65.869H127.035Z" fill="#676767"/>
<path d="M4.91252 19.33H8.10752V43H4.91252V19.33ZM6.53252 14.155C5.87252 14.155 5.31752 13.93 4.86752 13.48C4.41752 13.03 4.19252 12.49 4.19252 11.86C4.19252 11.26 4.41752 10.735 4.86752 10.285C5.31752 9.835 5.87252 9.61 6.53252 9.61C7.19252 9.61 7.74752 9.835 8.19752 10.285C8.64752 10.705 8.87252 11.215 8.87252 11.815C8.87252 12.475 8.64752 13.03 8.19752 13.48C7.74752 13.93 7.19252 14.155 6.53252 14.155Z" fill="black"/>
</svg>
